  0
SECTION
  2
HEADER
  9
$ACADVER
  1
AC1009
  9
$DWGCODEPAGE
  3
ansi_1252
  9
$INSBASE
 10
0.0
 20
0.0
 30
0.0
  9
$EXTMIN
 10
1.000000000000000E+20
 20
1.000000000000000E+20
 30
1.000000000000000E+20
  9
$EXTMAX
 10
-1.000000000000000E+20
 20
-1.000000000000000E+20
 30
-1.000000000000000E+20
  9
$LIMMIN
 10
0.0
 20
0.0
  9
$LIMMAX
 10
12.0
 20
9.0
  9
$ORTHOMODE
 70
     0
  9
$REGENMODE
 70
     1
  9
$FILLMODE
 70
     1
  9
$QTEXTMODE
 70
     0
  9
$MIRRTEXT
 70
     1
  9
$DRAGMODE
 70
     2
  9
$LTSCALE
 40
1.0
  9
$OSMODE
 70
    37
  9
$ATTMODE
 70
     1
  9
$TEXTSIZE
 40
0.25
  9
$TRACEWID
 40
0.05
  9
$TEXTSTYLE
  7
STANDARD
  9
$CLAYER
  8
0
  9
$CELTYPE
  6
BYLAYER
  9
$CECOLOR
 62
     3
  9
$DIMSCALE
 40
1.0
  9
$DIMASZ
 40
2.5
  9
$DIMEXO
 40
0.0625
  9
$DIMDLI
 40
0.38
  9
$DIMRND
 40
0.0
  9
$DIMDLE
 40
0.0
  9
$DIMEXE
 40
0.625
  9
$DIMTP
 40
0.001
  9
$DIMTM
 40
-0.001
  9
$DIMTXT
 40
0.25
  9
$DIMCEN
 40
0.09
  9
$DIMTSZ
 40
0.0
  9
$DIMTOL
 70
     0
  9
$DIMLIM
 70
     0
  9
$DIMTIH
 70
     1
  9
$DIMTOH
 70
     1
  9
$DIMSE1
 70
     0
  9
$DIMSE2
 70
     0
  9
$DIMTAD
 70
     0
  9
$DIMZIN
 70
     0
  9
$DIMBLK
  1

  9
$DIMASO
 70
     1
  9
$DIMSHO
 70
     1
  9
$DIMPOST
  1

  9
$DIMAPOST
  1

  9
$DIMALT
 70
     0
  9
$DIMALTD
 70
     2
  9
$DIMALTF
 40
25.4
  9
$DIMLFAC
 40
1.0
  9
$DIMTOFL
 70
     0
  9
$DIMTVP
 40
0.0
  9
$DIMTIX
 70
     0
  9
$DIMSOXD
 70
     0
  9
$DIMSAH
 70
     0
  9
$DIMBLK1
  1

  9
$DIMBLK2
  1

  9
$DIMSTYLE
  2
STANDARD
  9
$DIMCLRD
 70
     0
  9
$DIMCLRE
 70
     0
  9
$DIMCLRT
 70
     0
  9
$DIMTFAC
 40
1.0
  9
$DIMGAP
 40
0.09
  9
$LUNITS
 70
     2
  9
$LUPREC
 70
     8
  9
$SKETCHINC
 40
0.1
  9
$FILLETRAD
 40
0.5
  9
$AUNITS
 70
     0
  9
$AUPREC
 70
     0
  9
$MENU
  1
.
  9
$ELEVATION
 40
0.0
  9
$PELEVATION
 40
0.0
  9
$THICKNESS
 40
0.0
  9
$LIMCHECK
 70
     0
  9
$CHAMFERA
 40
0.0
  9
$CHAMFERB
 40
0.0
  9
$SKPOLY
 70
     0
  9
$TDCREATE
 40
2458130.75340809
  9
$TDUPDATE
 40
2458130.753409711
  9
$TDINDWG
 40
0.0000000116
  9
$TDUSRTIMER
 40
0.0000000116
  9
$USRTIMER
 70
     1
  9
$ANGBASE
 50
0.0
  9
$ANGDIR
 70
     0
  9
$PDMODE
 70
     2
  9
$PDSIZE
 40
0.03
  9
$PLINEWID
 40
0.0
  9
$COORDS
 70
     1
  9
$SPLFRAME
 70
     0
  9
$SPLINETYPE
 70
     6
  9
$SPLINESEGS
 70
     8
  9
$ATTDIA
 70
     0
  9
$ATTREQ
 70
     1
  9
$HANDLING
 70
     1
  9
$HANDSEED
  5
2D2
  9
$SURFTAB1
 70
     6
  9
$SURFTAB2
 70
     6
  9
$SURFTYPE
 70
     6
  9
$SURFU
 70
     6
  9
$SURFV
 70
     6
  9
$UCSNAME
  2

  9
$UCSORG
 10
0.0
 20
0.0
 30
0.0
  9
$UCSXDIR
 10
1.0
 20
0.0
 30
0.0
  9
$UCSYDIR
 10
0.0
 20
1.0
 30
0.0
  9
$PUCSNAME
  2

  9
$PUCSORG
 10
0.0
 20
0.0
 30
0.0
  9
$PUCSXDIR
 10
1.0
 20
0.0
 30
0.0
  9
$PUCSYDIR
 10
0.0
 20
1.0
 30
0.0
  9
$USERI1
 70
     0
  9
$USERI2
 70
     0
  9
$USERI3
 70
     0
  9
$USERI4
 70
     0
  9
$USERI5
 70
     0
  9
$USERR1
 40
0.0
  9
$USERR2
 40
0.0
  9
$USERR3
 40
0.0
  9
$USERR4
 40
0.0
  9
$USERR5
 40
0.0
  9
$WORLDVIEW
 70
     1
  9
$SHADEDGE
 70
     3
  9
$SHADEDIF
 70
    70
  9
$TILEMODE
 70
     1
  9
$MAXACTVP
 70
    64
  9
$PLIMCHECK
 70
     0
  9
$PEXTMIN
 10
1.000000000000000E+20
 20
1.000000000000000E+20
 30
1.000000000000000E+20
  9
$PEXTMAX
 10
-1.000000000000000E+20
 20
-1.000000000000000E+20
 30
-1.000000000000000E+20
  9
$PLIMMIN
 10
-20.0
 20
-7.5
  9
$PLIMMAX
 10
277.0
 20
202.5
  9
$UNITMODE
 70
     0
  9
$VISRETAIN
 70
     1
  9
$PLINEGEN
 70
     0
  9
$PSLTSCALE
 70
     1
  0
ENDSEC
  0
SECTION
  2
TABLES
  0
TABLE
  2
VPORT
 70
     1
  0
VPORT
  2
*ACTIVE
 70
     0
 10
0.0
 20
0.0
 11
1.0
 21
1.0
 12
0.0
 22
0.0
 13
0.0
 23
0.0
 14
0.5
 24
0.5
 15
0.5
 25
0.5
 16
0.0
 26
0.0
 36
1.0
 17
-17.70000000000005
 27
324.9999999999999
 37
0.0
 40
650.0
 41
2.101846153846154
 42
50.0
 43
0.0
 44
0.0
 50
0.0
 51
0.0
 71
     0
 72
 10000
 73
     1
 74
     3
 75
     0
 76
     0
 77
     0
 78
     0
  0
ENDTAB
  0
TABLE
  2
LTYPE
 70
     4
  0
LTYPE
  2
CONTINUOUS
 70
     0
  3
Solid line
 72
    65
 73
     0
 40
0.0
  0
LTYPE
  2
DASHED
 70
     0
  3
_ _ _ _ _ _ _ _ _ _ _ _ _ _ _ _
 72
    65
 73
     2
 40
4.8
 49
2.4
 49
-2.4
  0
LTYPE
  2
CENTER
 70
     0
  3
___ _ ___ _ ___ _ ___ _ ___ _ ___ _ ___ _ ___ _
 72
    65
 73
     4
 40
22.8
 49
15.0
 49
-3.0
 49
1.8
 49
-3.0
  0
LTYPE
  2
PHANTOM
 70
     0
  3
______  __  __  ______  __  __  ______  __  __  
 72
    65
 73
     6
 40
27.6
 49
15.0
 49
-3.0
 49
1.8
 49
-3.0
 49
1.8
 49
-3.0
  0
ENDTAB
  0
TABLE
  2
LAYER
 70
    12
  0
LAYER
  2
0
 70
     0
 62
     7
  6
CONTINUOUS
  0
LAYER
  2
UNNAMED__1_
 70
     0
 62
     7
  6
CONTINUOUS
  0
LAYER
  2
RIGHT_SIDE__1_4_
 70
     0
 62
     7
  6
CONTINUOUS
  0
LAYER
  2
OUTLINE__1_4_2_
 70
     0
 62
     7
  6
CONTINUOUS
  0
LAYER
  2
FRONT__1_5_
 70
     0
 62
     7
  6
CONTINUOUS
  0
LAYER
  2
OUTLINE__1_5_2_
 70
     0
 62
     7
  6
CONTINUOUS
  0
LAYER
  2
BACK__1_6_
 70
     0
 62
     7
  6
CONTINUOUS
  0
LAYER
  2
OUTLINE__1_6_2_
 70
     0
 62
     7
  6
CONTINUOUS
  0
LAYER
  2
TOP__1_2_
 70
     0
 62
     7
  6
CONTINUOUS
  0
LAYER
  2
OUTLINE__1_2_2_
 70
     0
 62
     7
  6
CONTINUOUS
  0
LAYER
  2
DOOR__1_7_
 70
     0
 62
     7
  6
CONTINUOUS
  0
LAYER
  2
OUTLINE__1_7_2_
 70
     0
 62
     7
  6
CONTINUOUS
  0
ENDTAB
  0
TABLE
  2
STYLE
 70
     1
  0
STYLE
  2
STANDARD
 70
     0
 40
0.0
 41
1.0
 50
0.0
 71
     0
 42
0.25
  3
txt
  4

  0
ENDTAB
  0
TABLE
  2
VIEW
 70
     0
  0
ENDTAB
  0
TABLE
  2
UCS
 70
     0
  0
ENDTAB
  0
TABLE
  2
APPID
 70
     1
  0
APPID
  2
ACAD
 70
     0
  0
ENDTAB
  0
TABLE
  2
DIMSTYLE
 70
     1
  0
DIMSTYLE
  2
STANDARD
 70
     0
  3

  4

  5

  6

  7

 40
1.0
 41
0.18
 42
0.0625
 43
0.38
 44
0.18
 45
0.0
 46
0.0
 47
0.0
 48
0.0
140
0.18
141
0.09
142
0.0
143
25.4
144
1.0
145
0.0
146
1.0
147
0.09
 71
     0
 72
     0
 73
     1
 74
     1
 75
     0
 76
     0
 77
     0
 78
     0
170
     0
171
     2
172
     0
173
     0
174
     0
175
     0
176
     0
177
     0
178
     0
  0
ENDTAB
  0
ENDSEC
  0
SECTION
  2
BLOCKS
  0
BLOCK
  8
0
  2
$MODEL_SPACE
 70
     0
 10
0.0
 20
0.0
 30
0.0
  3
$MODEL_SPACE
  1

  0
ENDBLK
  5
21
  8
0
  0
BLOCK
 67
     1
  8
0
  2
$PAPER_SPACE
 70
     0
 10
0.0
 20
0.0
 30
0.0
  3
$PAPER_SPACE
  1

  0
ENDBLK
  5
1D
 67
     1
  8
0
  0
ENDSEC
  0
SECTION
  2
ENTITIES
  0
LINE
  5
7C
  8
OUTLINE__1_7_2_
  6
CONTINUOUS
 62
     2
 10
-657.8
 20
10.00000000000003
 30
0.0000000000023913
 11
-657.8
 21
293.5000000000001
 31
-0.0000000000858144
  0
LINE
  5
7D
  8
OUTLINE__1_7_2_
  6
CONTINUOUS
 62
     2
 10
-380.8
 20
293.5000000000001
 30
-0.000000000087591
 11
-380.8
 21
10.00000000000003
 31
-0.0000000000015651
  0
LINE
  5
7E
  8
OUTLINE__1_7_2_
  6
CONTINUOUS
 62
     2
 10
-390.8
 20
0.0
 30
0.0000000000024083
 11
-647.8
 21
0.0
 31
0.0000000000023913
  0
LINE
  5
7F
  8
OUTLINE__1_7_2_
  6
CONTINUOUS
 62
     2
 10
-516.859469807148
 20
23.47198600769045
 30
0.0000004171449237
 11
-514.4305944740772
 21
23.47198600769045
 31
0.0000004171449237
  0
LINE
  5
80
  8
OUTLINE__1_7_2_
  6
CONTINUOUS
 62
     2
 10
-500.1946886479855
 20
21.24948585629466
 30
0.0000004171449237
 11
-500.1946886479855
 21
17.12198600769046
 31
0.0000004171449237
  0
LINE
  5
81
  8
OUTLINE__1_7_2_
  6
CONTINUOUS
 62
     2
 10
-647.8
 20
303.5000000000001
 30
-0.0000000000876079
 11
-390.8
 21
303.5000000000001
 31
-0.000000000087591
  0
LINE
  5
82
  8
OUTLINE__1_7_2_
  6
CONTINUOUS
 62
     2
 10
-513.081219625473
 20
21.88448600769046
 30
0.0000004171449237
 11
-513.081219625473
 21
18.70948600769045
 31
0.0000004171449237
  0
POLYLINE
  5
83
  8
OUTLINE__1_7_2_
  6
CONTINUOUS
 62
     2
 66
     1
 10
0.0
 20
0.0
 30
0.0000004171449239
 70
     1
  0
VERTEX
  5
1E2
  8
OUTLINE__1_7_2_
  6
CONTINUOUS
 62
     2
 10
-509.1342982500791
 20
21.17011093199254
 30
0.0000004171449239
  0
VERTEX
  5
1E3
  8
OUTLINE__1_7_2_
  6
CONTINUOUS
 62
     2
 10
-510.0113914474844
 20
21.17011093199254
 30
0.0000004171449239
  0
VERTEX
  5
1E4
  8
OUTLINE__1_7_2_
  6
CONTINUOUS
 62
     2
 10
-510.7198134511709
 20
20.57479843199254
 30
0.0000004171449239
  0
VERTEX
  5
1E5
  8
OUTLINE__1_7_2_
  6
CONTINUOUS
 62
     2
 10
-510.989688950777
 20
19.58261093199254
 30
0.0000004171449239
  0
VERTEX
  5
1E6
  8
OUTLINE__1_7_2_
  6
CONTINUOUS
 62
     2
 10
-510.989688950777
 20
18.78886093199255
 30
0.0000004171449239
  0
VERTEX
  5
1E7
  8
OUTLINE__1_7_2_
  6
CONTINUOUS
 62
     2
 10
-510.7198134511709
 20
17.79667343199255
 30
0.0000004171449239
  0
VERTEX
  5
1E8
  8
OUTLINE__1_7_2_
  6
CONTINUOUS
 62
     2
 10
-510.0113914474844
 20
17.20136093199254
 30
0.0000004171449239
  0
VERTEX
  5
1E9
  8
OUTLINE__1_7_2_
  6
CONTINUOUS
 62
     2
 10
-509.1342982500791
 20
17.20136093199254
 30
0.0000004171449239
  0
VERTEX
  5
1EA
  8
OUTLINE__1_7_2_
  6
CONTINUOUS
 62
     2
 10
-508.4258762463926
 20
17.79667343199255
 30
0.0000004171449239
  0
VERTEX
  5
1EB
  8
OUTLINE__1_7_2_
  6
CONTINUOUS
 62
     2
 10
-508.1560008414089
 20
18.78886093199255
 30
0.0000004171449239
  0
VERTEX
  5
1EC
  8
OUTLINE__1_7_2_
  6
CONTINUOUS
 62
     2
 10
-508.1560008414089
 20
19.58261093199254
 30
0.0000004171449239
  0
VERTEX
  5
1ED
  8
OUTLINE__1_7_2_
  6
CONTINUOUS
 62
     2
 10
-508.4258762463926
 20
20.57479843199254
 30
0.0000004171449239
  0
SEQEND
  5
2BA
  8
OUTLINE__1_7_2_
  6
CONTINUOUS
 62
     2
  0
POLYLINE
  5
90
  8
OUTLINE__1_7_2_
  6
CONTINUOUS
 62
     2
 66
     1
 10
0.0
 20
0.0
 30
0.0000004171449239
  0
VERTEX
  5
1EE
  8
OUTLINE__1_7_2_
  6
CONTINUOUS
 62
     2
 10
-500.1946886479854
 20
19.58261093199254
 30
0.0000004171449239
  0
VERTEX
  5
1EF
  8
OUTLINE__1_7_2_
  6
CONTINUOUS
 62
     2
 10
-499.9922815501689
 20
20.45573585629464
 30
0.0000004171449239
  0
VERTEX
  5
1F0
  8
OUTLINE__1_7_2_
  6
CONTINUOUS
 62
     2
 10
-499.4525320649146
 20
21.05104835629465
 30
0.0000004171449239
  0
VERTEX
  5
1F1
  8
OUTLINE__1_7_2_
  6
CONTINUOUS
 62
     2
 10
-498.7103762388228
 20
21.24948585629464
 30
0.0000004171449239
  0
VERTEX
  5
1F2
  8
OUTLINE__1_7_2_
  6
CONTINUOUS
 62
     2
 10
-498.0019544243812
 20
20.97167343199255
 30
0.0000004171449239
  0
VERTEX
  5
1F3
  8
OUTLINE__1_7_2_
  6
CONTINUOUS
 62
     2
 10
-497.495938950777
 20
20.29698600769044
 30
0.0000004171449239
  0
SEQEND
  5
2BB
  8
OUTLINE__1_7_2_
  6
CONTINUOUS
 62
     2
  0
POLYLINE
  5
97
  8
OUTLINE__1_7_2_
  6
CONTINUOUS
 62
     2
 66
     1
 10
0.0
 20
0.0
 30
-0.0000004171449239
210
0.0
220
0.0
230
-1.0
  0
VERTEX
  5
1F4
  8
OUTLINE__1_7_2_
  6
CONTINUOUS
 62
     2
 10
513.081219625473
 20
18.70948600769044
 30
-0.0000004171449239
  0
VERTEX
  5
1F5
  8
OUTLINE__1_7_2_
  6
CONTINUOUS
 62
     2
 10
513.1486887842416
 20
18.23323608338834
 30
-0.0000004171449239
  0
VERTEX
  5
1F6
  8
OUTLINE__1_7_2_
  6
CONTINUOUS
 62
     2
 10
513.3173607349395
 20
17.75698615908624
 30
-0.0000004171449239
  0
VERTEX
  5
1F7
  8
OUTLINE__1_7_2_
  6
CONTINUOUS
 62
     2
 10
513.6209698677062
 20
17.39979843199254
 30
-0.0000004171449239
  0
VERTEX
  5
1F8
  8
OUTLINE__1_7_2_
  6
CONTINUOUS
 62
     2
 10
514.0257825493812
 20
17.20136093199254
 30
-0.0000004171449239
  0
VERTEX
  5
1F9
  8
OUTLINE__1_7_2_
  6
CONTINUOUS
 62
     2
 10
514.4305944740772
 20
17.12198600769044
 30
-0.0000004171449239
  0
SEQEND
  5
2BC
  8
OUTLINE__1_7_2_
  6
CONTINUOUS
 62
     2
  0
POLYLINE
  5
9E
  8
OUTLINE__1_7_2_
  6
CONTINUOUS
 62
     2
 66
     1
 10
0.0
 20
0.0
 30
-0.0000004171449239
 70
     1
210
0.0
220
0.0
230
-1.0
  0
VERTEX
  5
1FA
  8
OUTLINE__1_7_2_
  6
CONTINUOUS
 62
     2
 10
503.736798287928
 20
21.17011093199254
 30
-0.0000004171449239
  0
VERTEX
  5
1FB
  8
OUTLINE__1_7_2_
  6
CONTINUOUS
 62
     2
 10
504.6138914853334
 20
21.17011093199254
 30
-0.0000004171449239
  0
VERTEX
  5
1FC
  8
OUTLINE__1_7_2_
  6
CONTINUOUS
 62
     2
 10
505.3223141513764
 20
20.57479843199254
 30
-0.0000004171449239
  0
VERTEX
  5
1FD
  8
OUTLINE__1_7_2_
  6
CONTINUOUS
 62
     2
 10
505.5921888940036
 20
19.58261093199254
 30
-0.0000004171449239
  0
VERTEX
  5
1FE
  8
OUTLINE__1_7_2_
  6
CONTINUOUS
 62
     2
 10
505.5921888940036
 20
18.78886093199255
 30
-0.0000004171449239
  0
VERTEX
  5
1FF
  8
OUTLINE__1_7_2_
  6
CONTINUOUS
 62
     2
 10
505.3223141513764
 20
17.79667343199255
 30
-0.0000004171449239
  0
VERTEX
  5
200
  8
OUTLINE__1_7_2_
  6
CONTINUOUS
 62
     2
 10
504.6138914853334
 20
17.20136093199254
 30
-0.0000004171449239
  0
VERTEX
  5
201
  8
OUTLINE__1_7_2_
  6
CONTINUOUS
 62
     2
 10
503.736798287928
 20
17.20136093199254
 30
-0.0000004171449239
  0
VERTEX
  5
202
  8
OUTLINE__1_7_2_
  6
CONTINUOUS
 62
     2
 10
503.0283755272626
 20
17.79667343199255
 30
-0.0000004171449239
  0
VERTEX
  5
203
  8
OUTLINE__1_7_2_
  6
CONTINUOUS
 62
     2
 10
502.7585007846355
 20
18.78886093199255
 30
-0.0000004171449239
  0
VERTEX
  5
204
  8
OUTLINE__1_7_2_
  6
CONTINUOUS
 62
     2
 10
502.7585007846355
 20
19.58261093199254
 30
-0.0000004171449239
  0
VERTEX
  5
205
  8
OUTLINE__1_7_2_
  6
CONTINUOUS
 62
     2
 10
503.0283755272626
 20
20.57479843199254
 30
-0.0000004171449239
  0
SEQEND
  5
2BD
  8
OUTLINE__1_7_2_
  6
CONTINUOUS
 62
     2
  0
POLYLINE
  5
AB
  8
OUTLINE__1_7_2_
  6
CONTINUOUS
 62
     2
 66
     1
 10
0.0
 20
0.0
 30
-0.0000004171449239
210
0.0
220
0.0
230
-1.0
  0
VERTEX
  5
206
  8
OUTLINE__1_7_2_
  6
CONTINUOUS
 62
     2
 10
513.081219625473
 20
21.88448600769044
 30
-0.0000004171449239
  0
VERTEX
  5
207
  8
OUTLINE__1_7_2_
  6
CONTINUOUS
 62
     2
 10
513.1486887842416
 20
22.36073593199254
 30
-0.0000004171449239
  0
VERTEX
  5
208
  8
OUTLINE__1_7_2_
  6
CONTINUOUS
 62
     2
 10
513.3173607349395
 20
22.83698585629464
 30
-0.0000004171449239
  0
VERTEX
  5
209
  8
OUTLINE__1_7_2_
  6
CONTINUOUS
 62
     2
 10
513.6209698677062
 20
23.19417358338834
 30
-0.0000004171449239
  0
VERTEX
  5
20A
  8
OUTLINE__1_7_2_
  6
CONTINUOUS
 62
     2
 10
514.0257825493812
 20
23.39261108338834
 30
-0.0000004171449239
  0
VERTEX
  5
20B
  8
OUTLINE__1_7_2_
  6
CONTINUOUS
 62
     2
 10
514.4305944740772
 20
23.47198600769044
 30
-0.0000004171449239
  0
SEQEND
  5
2BE
  8
OUTLINE__1_7_2_
  6
CONTINUOUS
 62
     2
  0
POLYLINE
  5
B2
  8
OUTLINE__1_7_2_
  6
CONTINUOUS
 62
     2
 66
     1
 10
0.0
 20
0.0
 30
0.0000004171449239
  0
VERTEX
  5
20C
  8
OUTLINE__1_7_2_
  6
CONTINUOUS
 62
     2
 10
-514.4305944740772
 20
17.12198600769044
 30
0.0000004171449239
  0
VERTEX
  5
20D
  8
OUTLINE__1_7_2_
  6
CONTINUOUS
 62
     2
 10
-516.8594698071479
 20
17.12198600769044
 30
0.0000004171449239
  0
VERTEX
  5
20E
  8
OUTLINE__1_7_2_
  6
CONTINUOUS
 62
     2
 10
-516.8594698071479
 20
23.47198600769044
 30
0.0000004171449239
  0
SEQEND
  5
2BF
  8
OUTLINE__1_7_2_
  6
CONTINUOUS
 62
     2
  0
ARC
  5
B6
  8
OUTLINE__1_7_2_
  6
CONTINUOUS
 62
     2
 10
-390.7999999999998
 20
10.0
 30
0.0000000000024083
 40
10.0
 50
270.0
 51
0.0
  0
ARC
  5
B7
  8
OUTLINE__1_7_2_
  6
CONTINUOUS
 62
     2
 10
-647.7999999999998
 20
10.0
 30
0.0000000000023913
 40
10.0
 50
180.0
 51
270.0
  0
ARC
  5
B8
  8
OUTLINE__1_7_2_
  6
CONTINUOUS
 62
     2
 10
-647.7999999999997
 20
293.5
 30
-0.0000000000876079
 40
10.00000000000004
 50
90.0
 51
179.9999999999997
  0
ARC
  5
B9
  8
OUTLINE__1_7_2_
  6
CONTINUOUS
 62
     2
 10
-390.7999999999999
 20
293.5000000000001
 30
-0.000000000087591
 40
10.0
 50
0.0000000000006514
 51
90.00000000000064
  0
CIRCLE
  5
BA
  8
OUTLINE__1_7_2_
  6
CONTINUOUS
 62
     2
 10
-645.8000000000001
 20
266.0
 30
-0.0000000000776083
 40
2.750000000000022
  0
CIRCLE
  5
BB
  8
OUTLINE__1_7_2_
  6
CONTINUOUS
 62
     2
 10
-645.8000000000001
 20
241.0
 30
-0.0000000000676059
 40
2.750000000000022
  0
CIRCLE
  5
BC
  8
OUTLINE__1_7_2_
  6
CONTINUOUS
 62
     2
 10
-645.8
 20
57.5
 30
-0.0000000000176079
 40
2.750000000000022
  0
CIRCLE
  5
BD
  8
OUTLINE__1_7_2_
  6
CONTINUOUS
 62
     2
 10
-393.8000000000001
 20
135.75
 30
-0.0000000000375902
 40
2.750000000000022
  0
CIRCLE
  5
BE
  8
OUTLINE__1_7_2_
  6
CONTINUOUS
 62
     2
 10
-645.8
 20
82.50000000000006
 30
-0.0000000000176079
 40
2.750000000000062
  0
CIRCLE
  5
BF
  8
OUTLINE__1_7_2_
  6
CONTINUOUS
 62
     2
 10
-393.8
 20
167.7500000000001
 30
-0.0000000000475898
 40
2.749999999999982
  0
LINE
  5
C0
  8
OUTLINE__1_2_2_
  6
CONTINUOUS
 62
     2
 10
-700.8
 20
649.9999999999969
 30
-0.0000000001910358
 11
-380.8
 21
649.9999999999969
 31
-0.0000000001910358
  0
LINE
  5
C1
  8
OUTLINE__1_2_2_
  6
CONTINUOUS
 62
     2
 10
-700.8
 20
339.999999999997
 30
-0.0000000001910358
 11
-700.8
 21
649.9999999999969
 31
-0.0000000001910358
  0
LINE
  5
C2
  8
OUTLINE__1_2_2_
  6
CONTINUOUS
 62
     2
 10
-380.8
 20
339.999999999997
 30
-0.0000000001910358
 11
-700.8
 21
339.999999999997
 31
-0.0000000001910358
  0
LINE
  5
C3
  8
OUTLINE__1_2_2_
  6
CONTINUOUS
 62
     2
 10
-542.3894367396831
 20
371.375766468045
 30
0.000004958915391
 11
-542.3894367396831
 21
365.025766468045
 31
0.000004958915391
  0
LINE
  5
C4
  8
OUTLINE__1_2_2_
  6
CONTINUOUS
 62
     2
 10
-533.0112804442643
 20
369.1532663166493
 30
0.000004958915391
 11
-533.0112804442643
 21
362.4857666194408
 31
0.000004958915391
  0
LINE
  5
C5
  8
OUTLINE__1_2_2_
  6
CONTINUOUS
 62
     2
 10
-544.2785618305206
 20
371.375766468045
 30
0.000004958915391
 11
-540.5003112703562
 21
371.375766468045
 31
0.000004958915391
  0
LINE
  5
C6
  8
OUTLINE__1_2_2_
  6
CONTINUOUS
 62
     2
 10
-380.7999999999999
 20
649.9999999999969
 30
-0.0000000001910358
 11
-380.8
 21
339.999999999997
 31
-0.0000000001910358
  0
POLYLINE
  5
C7
  8
OUTLINE__1_2_2_
  6
CONTINUOUS
 62
     2
 66
     1
 10
0.0
 20
0.0
 30
0.0000049589154187
 70
     1
  0
VERTEX
  5
20F
  8
OUTLINE__1_2_2_
  6
CONTINUOUS
 62
     2
 10
-536.5533899895846
 20
369.0738913923472
 30
0.0000049589154187
  0
VERTEX
  5
210
  8
OUTLINE__1_2_2_
  6
CONTINUOUS
 62
     2
 10
-537.4304831869899
 20
369.0738913923472
 30
0.0000049589154187
  0
VERTEX
  5
211
  8
OUTLINE__1_2_2_
  6
CONTINUOUS
 62
     2
 10
-538.1389051906764
 20
368.4785788923472
 30
0.0000049589154187
  0
VERTEX
  5
212
  8
OUTLINE__1_2_2_
  6
CONTINUOUS
 62
     2
 10
-538.4087805956601
 20
367.4863913923472
 30
0.0000049589154187
  0
VERTEX
  5
213
  8
OUTLINE__1_2_2_
  6
CONTINUOUS
 62
     2
 10
-538.4087805956601
 20
366.6926413923471
 30
0.0000049589154187
  0
VERTEX
  5
214
  8
OUTLINE__1_2_2_
  6
CONTINUOUS
 62
     2
 10
-538.1389051906764
 20
365.7004538923471
 30
0.0000049589154187
  0
VERTEX
  5
215
  8
OUTLINE__1_2_2_
  6
CONTINUOUS
 62
     2
 10
-537.4304831869899
 20
365.1051413923472
 30
0.0000049589154187
  0
VERTEX
  5
216
  8
OUTLINE__1_2_2_
  6
CONTINUOUS
 62
     2
 10
-536.5533899895846
 20
365.1051413923472
 30
0.0000049589154187
  0
VERTEX
  5
217
  8
OUTLINE__1_2_2_
  6
CONTINUOUS
 62
     2
 10
-535.8449679858982
 20
365.7004538923471
 30
0.0000049589154187
  0
VERTEX
  5
218
  8
OUTLINE__1_2_2_
  6
CONTINUOUS
 62
     2
 10
-535.5750925809144
 20
366.6926413923471
 30
0.0000049589154187
  0
VERTEX
  5
219
  8
OUTLINE__1_2_2_
  6
CONTINUOUS
 62
     2
 10
-535.5750925809144
 20
367.4863913923472
 30
0.0000049589154187
  0
VERTEX
  5
21A
  8
OUTLINE__1_2_2_
  6
CONTINUOUS
 62
     2
 10
-535.8449679858982
 20
368.4785788923472
 30
0.0000049589154187
  0
SEQEND
  5
2C0
  8
OUTLINE__1_2_2_
  6
CONTINUOUS
 62
     2
  0
POLYLINE
  5
D4
  8
OUTLINE__1_2_2_
  6
CONTINUOUS
 62
     2
 66
     1
 10
0.0
 20
0.0
 30
0.0000049589154187
  0
VERTEX
  5
21B
  8
OUTLINE__1_2_2_
  6
CONTINUOUS
 62
     2
 10
-533.0112804442643
 20
366.6926413923471
 30
0.0000049589154187
  0
VERTEX
  5
21C
  8
OUTLINE__1_2_2_
  6
CONTINUOUS
 62
     2
 10
-532.7414057016372
 20
365.7004538923471
 30
0.0000049589154187
  0
VERTEX
  5
21D
  8
OUTLINE__1_2_2_
  6
CONTINUOUS
 62
     2
 10
-532.0329831302165
 20
365.1051413923472
 30
0.0000049589154187
  0
VERTEX
  5
21E
  8
OUTLINE__1_2_2_
  6
CONTINUOUS
 62
     2
 10
-531.1558901220559
 20
365.1051413923472
 30
0.0000049589154187
  0
VERTEX
  5
21F
  8
OUTLINE__1_2_2_
  6
CONTINUOUS
 62
     2
 10
-530.4474671721458
 20
365.7004538923471
 30
0.0000049589154187
  0
VERTEX
  5
220
  8
OUTLINE__1_2_2_
  6
CONTINUOUS
 62
     2
 10
-530.1775928080082
 20
366.6926413923471
 30
0.0000049589154187
  0
VERTEX
  5
221
  8
OUTLINE__1_2_2_
  6
CONTINUOUS
 62
     2
 10
-530.1775928080082
 20
367.4863913923472
 30
0.0000049589154187
  0
VERTEX
  5
222
  8
OUTLINE__1_2_2_
  6
CONTINUOUS
 62
     2
 10
-530.4474671721458
 20
368.4785788923472
 30
0.0000049589154187
  0
VERTEX
  5
223
  8
OUTLINE__1_2_2_
  6
CONTINUOUS
 62
     2
 10
-531.1558901220559
 20
369.0738913923472
 30
0.0000049589154187
  0
VERTEX
  5
224
  8
OUTLINE__1_2_2_
  6
CONTINUOUS
 62
     2
 10
-532.0329831302165
 20
369.0738913923472
 30
0.0000049589154187
  0
VERTEX
  5
225
  8
OUTLINE__1_2_2_
  6
CONTINUOUS
 62
     2
 10
-532.7414057016372
 20
368.4785788923472
 30
0.0000049589154187
  0
VERTEX
  5
226
  8
OUTLINE__1_2_2_
  6
CONTINUOUS
 62
     2
 10
-533.0112804442643
 20
367.4863913923472
 30
0.0000049589154187
  0
SEQEND
  5
2C1
  8
OUTLINE__1_2_2_
  6
CONTINUOUS
 62
     2
  0
CIRCLE
  5
E1
  8
OUTLINE__1_2_2_
  6
CONTINUOUS
 62
     2
 10
-390.8
 20
374.999999999997
 30
-0.0000000001910574
 40
1.750000000000014
  0
CIRCLE
  5
E2
  8
OUTLINE__1_2_2_
  6
CONTINUOUS
 62
     2
 10
-690.8000000000001
 20
614.9999999999972
 30
-0.0000000001910574
 40
1.749999999999954
  0
CIRCLE
  5
E3
  8
OUTLINE__1_2_2_
  6
CONTINUOUS
 62
     2
 10
-690.8000000000002
 20
374.999999999997
 30
-0.0000000001910574
 40
1.750000000000014
  0
CIRCLE
  5
E4
  8
OUTLINE__1_2_2_
  6
CONTINUOUS
 62
     2
 10
-390.7999999999999
 20
614.999999999997
 30
-0.0000000001910574
 40
1.749999999999914
  0
LINE
  5
E5
  8
OUTLINE__1_6_2_
  6
CONTINUOUS
 62
     2
 10
338.4
 20
649.9999999999999
 30
0.0
 11
662.4
 21
649.9999999999999
 31
0.0
  0
LINE
  5
E6
  8
OUTLINE__1_6_2_
  6
CONTINUOUS
 62
     2
 10
335.4
 20
-0.0000000000000536
 30
0.0
 11
335.4
 21
647.0
 31
0.0
  0
LINE
  5
E7
  8
OUTLINE__1_6_2_
  6
CONTINUOUS
 62
     2
 10
665.4
 20
647.0
 30
0.0
 11
665.4
 21
-0.0000000000000169
 31
0.0
  0
LINE
  5
E8
  8
OUTLINE__1_6_2_
  6
CONTINUOUS
 62
     2
 10
665.4
 20
-0.0000000000000536
 30
0.0
 11
335.4
 21
-0.0000000000000536
 31
0.0
  0
LINE
  5
E9
  8
OUTLINE__1_6_2_
  6
CONTINUOUS
 62
     2
 10
338.4
 20
649.9999999999999
 30
0.0
 11
335.3999999999951
 21
647.0000000000049
 31
0.0
  0
LINE
  5
EA
  8
OUTLINE__1_6_2_
  6
CONTINUOUS
 62
     2
 10
513.1662544056774
 20
25.54515893459315
 30
0.0000022888183508
 11
513.1662544056774
 21
29.67265878319735
 31
0.0000022888183508
  0
LINE
  5
EB
  8
OUTLINE__1_6_2_
  6
CONTINUOUS
 62
     2
 10
665.4
 20
647.0
 30
0.0
 11
662.4000000000001
 21
649.9999999999999
 31
0.0
  0
LINE
  5
EC
  8
OUTLINE__1_6_2_
  6
CONTINUOUS
 62
     2
 10
506.6217855572701
 20
29.11703393459315
 30
0.0000022888183508
 11
504.3615825533867
 21
29.11703393459315
 31
0.0000022888183508
  0
LINE
  5
ED
  8
OUTLINE__1_6_2_
  6
CONTINUOUS
 62
     2
 10
522.0046606481076
 20
27.72797143459315
 30
0.0000022888183508
 11
523.860051727295
 21
25.54515893459315
 31
0.0000022888183508
  0
LINE
  5
EE
  8
OUTLINE__1_6_2_
  6
CONTINUOUS
 62
     2
 10
521.0263637125493
 20
31.89515893459315
 30
0.0000022888183508
 11
521.0263637125493
 21
25.54515893459315
 31
0.0000022888183508
  0
LINE
  5
EF
  8
OUTLINE__1_6_2_
  6
CONTINUOUS
 62
     2
 10
523.860051727295
 20
29.67265878319735
 30
0.0000022888183508
 11
521.0263637125493
 21
26.65640901029105
 31
0.0000022888183508
  0
POLYLINE
  5
F0
  8
OUTLINE__1_6_2_
  6
CONTINUOUS
 62
     2
 66
     1
 10
0.0
 20
0.0
 30
0.000002288818358
  0
VERTEX
  5
227
  8
OUTLINE__1_6_2_
  6
CONTINUOUS
 62
     2
 10
513.1662544056774
 20
27.96609658598894
 30
0.000002288818358
  0
VERTEX
  5
228
  8
OUTLINE__1_6_2_
  6
CONTINUOUS
 62
     2
 10
512.8963796630503
 20
28.95828408598894
 30
0.000002288818358
  0
VERTEX
  5
229
  8
OUTLINE__1_6_2_
  6
CONTINUOUS
 62
     2
 10
512.1542230799795
 20
29.59328385889525
 30
0.000002288818358
  0
VERTEX
  5
22A
  8
OUTLINE__1_6_2_
  6
CONTINUOUS
 62
     2
 10
511.2433947354556
 20
29.59328385889525
 30
0.000002288818358
  0
VERTEX
  5
22B
  8
OUTLINE__1_6_2_
  6
CONTINUOUS
 62
     2
 10
510.5012389093638
 20
28.95828408598894
 30
0.000002288818358
  0
VERTEX
  5
22C
  8
OUTLINE__1_6_2_
  6
CONTINUOUS
 62
     2
 10
510.2313634097577
 20
27.96609658598894
 30
0.000002288818358
  0
VERTEX
  5
22D
  8
OUTLINE__1_6_2_
  6
CONTINUOUS
 62
     2
 10
510.2313634097577
 20
27.29140878319735
 30
0.000002288818358
  0
VERTEX
  5
22E
  8
OUTLINE__1_6_2_
  6
CONTINUOUS
 62
     2
 10
510.5012389093638
 20
26.25953401029104
 30
0.000002288818358
  0
VERTEX
  5
22F
  8
OUTLINE__1_6_2_
  6
CONTINUOUS
 62
     2
 10
511.2433947354556
 20
25.62453385889525
 30
0.000002288818358
  0
VERTEX
  5
230
  8
OUTLINE__1_6_2_
  6
CONTINUOUS
 62
     2
 10
512.1542230799795
 20
25.62453385889525
 30
0.000002288818358
  0
VERTEX
  5
231
  8
OUTLINE__1_6_2_
  6
CONTINUOUS
 62
     2
 10
512.8963796630503
 20
26.25953401029104
 30
0.000002288818358
  0
VERTEX
  5
232
  8
OUTLINE__1_6_2_
  6
CONTINUOUS
 62
     2
 10
513.1662544056774
 20
27.29140878319735
 30
0.000002288818358
  0
SEQEND
  5
2C2
  8
OUTLINE__1_6_2_
  6
CONTINUOUS
 62
     2
  0
POLYLINE
  5
FD
  8
OUTLINE__1_6_2_
  6
CONTINUOUS
 62
     2
 66
     1
 10
0.0
 20
0.0
 30
0.000002288818358
  0
VERTEX
  5
233
  8
OUTLINE__1_6_2_
  6
CONTINUOUS
 62
     2
 10
518.2601444780828
 20
28.75984658598894
 30
0.000002288818358
  0
VERTEX
  5
234
  8
OUTLINE__1_6_2_
  6
CONTINUOUS
 62
     2
 10
518.0577388942243
 20
29.19640885889525
 30
0.000002288818358
  0
VERTEX
  5
235
  8
OUTLINE__1_6_2_
  6
CONTINUOUS
 62
     2
 10
517.3155823111535
 20
29.63297151029104
 30
0.000002288818358
  0
VERTEX
  5
236
  8
OUTLINE__1_6_2_
  6
CONTINUOUS
 62
     2
 10
516.505958083272
 20
29.55359658598894
 30
0.000002288818358
  0
VERTEX
  5
237
  8
OUTLINE__1_6_2_
  6
CONTINUOUS
 62
     2
 10
515.865004386753
 20
28.91859643459314
 30
0.000002288818358
  0
VERTEX
  5
238
  8
OUTLINE__1_6_2_
  6
CONTINUOUS
 62
     2
 10
515.6288634665311
 20
28.00578385889525
 30
0.000002288818358
  0
VERTEX
  5
239
  8
OUTLINE__1_6_2_
  6
CONTINUOUS
 62
     2
 10
515.6288634665311
 20
27.21203385889525
 30
0.000002288818358
  0
VERTEX
  5
23A
  8
OUTLINE__1_6_2_
  6
CONTINUOUS
 62
     2
 10
515.865004386753
 20
26.29922128319735
 30
0.000002288818358
  0
VERTEX
  5
23B
  8
OUTLINE__1_6_2_
  6
CONTINUOUS
 62
     2
 10
516.4384889245034
 20
25.70390878319735
 30
0.000002288818358
  0
VERTEX
  5
23C
  8
OUTLINE__1_6_2_
  6
CONTINUOUS
 62
     2
 10
517.2481131523848
 20
25.54515893459315
 30
0.000002288818358
  0
VERTEX
  5
23D
  8
OUTLINE__1_6_2_
  6
CONTINUOUS
 62
     2
 10
517.9565357238055
 20
25.94203393459314
 30
0.000002288818358
  0
VERTEX
  5
23E
  8
OUTLINE__1_6_2_
  6
CONTINUOUS
 62
     2
 10
518.1926768332721
 20
26.33890893459315
 30
0.000002288818358
  0
SEQEND
  5
2C3
  8
OUTLINE__1_6_2_
  6
CONTINUOUS
 62
     2
  0
POLYLINE
  5
10A
  8
OUTLINE__1_6_2_
  6
CONTINUOUS
 62
     2
 66
     1
 10
0.0
 20
0.0
 30
0.000002288818358
 70
     1
  0
VERTEX
  5
23F
  8
OUTLINE__1_6_2_
  6
CONTINUOUS
 62
     2
 10
506.6217855572701
 20
31.89515893459314
 30
0.000002288818358
  0
VERTEX
  5
240
  8
OUTLINE__1_6_2_
  6
CONTINUOUS
 62
     2
 10
507.0265982389451
 20
31.81578401029104
 30
0.000002288818358
  0
VERTEX
  5
241
  8
OUTLINE__1_6_2_
  6
CONTINUOUS
 62
     2
 10
507.3639421403409
 20
31.57765885889525
 30
0.000002288818358
  0
VERTEX
  5
242
  8
OUTLINE__1_6_2_
  6
CONTINUOUS
 62
     2
 10
507.6338172614575
 20
31.18078385889525
 30
0.000002288818358
  0
VERTEX
  5
243
  8
OUTLINE__1_6_2_
  6
CONTINUOUS
 62
     2
 10
507.7687540650368
 20
30.74422158598894
 30
0.000002288818358
  0
VERTEX
  5
244
  8
OUTLINE__1_6_2_
  6
CONTINUOUS
 62
     2
 10
507.7687540650368
 20
30.26797128319735
 30
0.000002288818358
  0
VERTEX
  5
245
  8
OUTLINE__1_6_2_
  6
CONTINUOUS
 62
     2
 10
507.6338172614575
 20
29.83140901029104
 30
0.000002288818358
  0
VERTEX
  5
246
  8
OUTLINE__1_6_2_
  6
CONTINUOUS
 62
     2
 10
507.3639421403409
 20
29.47422128319735
 30
0.000002288818358
  0
VERTEX
  5
247
  8
OUTLINE__1_6_2_
  6
CONTINUOUS
 62
     2
 10
507.0265982389451
 20
29.23609651029104
 30
0.000002288818358
  0
VERTEX
  5
248
  8
OUTLINE__1_6_2_
  6
CONTINUOUS
 62
     2
 10
506.6217855572701
 20
29.11703393459315
 30
0.000002288818358
  0
VERTEX
  5
249
  8
OUTLINE__1_6_2_
  6
CONTINUOUS
 62
     2
 10
507.1278010308743
 20
28.99797135889525
 30
0.000002288818358
  0
VERTEX
  5
24A
  8
OUTLINE__1_6_2_
  6
CONTINUOUS
 62
     2
 10
507.6000824928284
 20
28.68047128319735
 30
0.000002288818358
  0
VERTEX
  5
24B
  8
OUTLINE__1_6_2_
  6
CONTINUOUS
 62
     2
 10
507.9374263942242
 20
28.20422135889525
 30
0.000002288818358
  0
VERTEX
  5
24C
  8
OUTLINE__1_6_2_
  6
CONTINUOUS
 62
     2
 10
508.1060979664326
 20
27.64859651029104
 30
0.000002288818358
  0
VERTEX
  5
24D
  8
OUTLINE__1_6_2_
  6
CONTINUOUS
 62
     2
 10
508.1060979664326
 20
27.01359635889525
 30
0.000002288818358
  0
VERTEX
  5
24E
  8
OUTLINE__1_6_2_
  6
CONTINUOUS
 62
     2
 10
507.9374263942242
 20
26.41828385889525
 30
0.000002288818358
  0
VERTEX
  5
24F
  8
OUTLINE__1_6_2_
  6
CONTINUOUS
 62
     2
 10
507.6000824928284
 20
25.94203393459314
 30
0.000002288818358
  0
VERTEX
  5
250
  8
OUTLINE__1_6_2_
  6
CONTINUOUS
 62
     2
 10
507.1278010308743
 20
25.66422151029104
 30
0.000002288818358
  0
VERTEX
  5
251
  8
OUTLINE__1_6_2_
  6
CONTINUOUS
 62
     2
 10
506.6217855572701
 20
25.54515893459315
 30
0.000002288818358
  0
VERTEX
  5
252
  8
OUTLINE__1_6_2_
  6
CONTINUOUS
 62
     2
 10
504.3615825533868
 20
25.54515893459315
 30
0.000002288818358
  0
VERTEX
  5
253
  8
OUTLINE__1_6_2_
  6
CONTINUOUS
 62
     2
 10
504.3615825533868
 20
31.89515893459314
 30
0.000002288818358
  0
SEQEND
  5
2C4
  8
OUTLINE__1_6_2_
  6
CONTINUOUS
 62
     2
  0
CIRCLE
  5
120
  8
OUTLINE__1_6_2_
  6
CONTINUOUS
 62
     2
 10
613.8
 20
39.99999999999994
 30
0.0000000000000183
 40
6.250000000000011
  0
CIRCLE
  5
121
  8
OUTLINE__1_6_2_
  6
CONTINUOUS
 62
     2
 10
350.4000000000001
 20
15.99999999999994
 30
0.0000000000000183
 40
1.749999999999994
  0
CIRCLE
  5
122
  8
OUTLINE__1_6_2_
  6
CONTINUOUS
 62
     2
 10
650.4000000000002
 20
15.99999999999989
 30
0.0000000000000183
 40
1.749999999999894
  0
CIRCLE
  5
123
  8
OUTLINE__1_6_2_
  6
CONTINUOUS
 62
     2
 10
650.4000000000001
 20
294.4999999999999
 30
0.0000000000000183
 40
1.749999999999894
  0
CIRCLE
  5
124
  8
OUTLINE__1_6_2_
  6
CONTINUOUS
 62
     2
 10
650.4000000000002
 20
628.9999999999999
 30
0.0000000000000183
 40
1.749999999999914
  0
CIRCLE
  5
125
  8
OUTLINE__1_6_2_
  6
CONTINUOUS
 62
     2
 10
350.4000000000001
 20
294.5
 30
0.0000000000000183
 40
1.749999999999974
  0
CIRCLE
  5
126
  8
OUTLINE__1_6_2_
  6
CONTINUOUS
 62
     2
 10
350.4
 20
629.0
 30
0.0000000000000183
 40
1.749999999999994
  0
LINE
  5
127
  8
OUTLINE__1_5_2_
  6
CONTINUOUS
 62
     2
 10
-315.4000000000001
 20
331.499999999997
 30
-0.0000000000975906
 11
-65.39999999999999
 21
331.499999999997
 31
-0.0000000000975751
  0
LINE
  5
128
  8
OUTLINE__1_5_2_
  6
CONTINUOUS
 62
     2
 10
-352.4
 20
649.9999999999969
 30
-0.0000000001925924
 11
-28.39999999999997
 21
649.9999999999969
 31
-0.0000000001925727
  0
LINE
  5
129
  8
OUTLINE__1_5_2_
  6
CONTINUOUS
 62
     2
 10
-352.4
 20
649.9999999999969
 30
-0.0000000001925924
 11
-355.3999999999998
 21
646.9999999999967
 31
-0.0000000001912868
  0
LINE
  5
12A
  8
OUTLINE__1_5_2_
  6
CONTINUOUS
 62
     2
 10
-355.4
 20
-0.0000000000000141
 30
0.0000000000024068
 11
-355.4
 21
646.999999999997
 31
-0.0000000001901644
  0
LINE
  5
12B
  8
OUTLINE__1_5_2_
  6
CONTINUOUS
 62
     2
 10
-119.45
 20
194.749999999997
 30
-0.0000000000575767
 11
-127.12065156841
 21
194.7499999999968
 31
-0.0000000000577882
  0
LINE
  5
12C
  8
OUTLINE__1_5_2_
  6
CONTINUOUS
 62
     2
 10
-119.45
 20
188.749999999997
 30
-0.0000000000575767
 11
-119.45
 21
194.749999999997
 31
-0.0000000000589486
  0
LINE
  5
12D
  8
OUTLINE__1_5_2_
  6
CONTINUOUS
 62
     2
 10
-127.0333534136832
 20
188.749999999997
 30
-0.0000000000575781
 11
-119.45
 21
188.749999999997
 31
-0.0000000000577783
  0
LINE
  5
12E
  8
OUTLINE__1_5_2_
  6
CONTINUOUS
 62
     2
 10
-25.4
 20
-0.0000000000000141
 30
0.000000000002428
 11
-355.4
 21
-0.0000000000000141
 31
0.0000000000024083
  0
LINE
  5
12F
  8
OUTLINE__1_5_2_
  6
CONTINUOUS
 62
     2
 10
-325.4
 20
614.9999999999969
 30
-0.0000000001875898
 11
-325.4
 21
341.499999999997
 31
-0.0000000001025128
  0
LINE
  5
130
  8
OUTLINE__1_5_2_
  6
CONTINUOUS
 62
     2
 10
-55.39999999999999
 20
341.499999999997
 30
-0.0000000000975751
 11
-55.39999999999999
 21
614.9999999999969
 31
-0.0000000001826478
  0
LINE
  5
131
  8
OUTLINE__1_5_2_
  6
CONTINUOUS
 62
     2
 10
-65.39999999999999
 20
624.9999999999969
 30
-0.0000000001875743
 11
-315.4
 21
624.9999999999969
 31
-0.0000000001875898
  0
LINE
  5
132
  8
OUTLINE__1_5_2_
  6
CONTINUOUS
 62
     2
 10
-148.45
 20
188.749999999997
 30
-0.0000000000575795
 11
-140.8666465863
 21
188.7499999999969
 31
-0.0000000000573779
  0
LINE
  5
133
  8
OUTLINE__1_5_2_
  6
CONTINUOUS
 62
     2
 10
-148.45
 20
194.7499999999967
 30
-0.0000000000575795
 11
-148.45
 21
188.749999999997
 31
-0.0000000000562062
  0
LINE
  5
134
  8
OUTLINE__1_5_2_
  6
CONTINUOUS
 62
     2
 10
-140.779348431588
 20
194.749999999997
 30
-0.0000000000575781
 11
-148.45
 21
194.7499999999967
 31
-0.0000000000573652
  0
LINE
  5
135
  8
OUTLINE__1_5_2_
  6
CONTINUOUS
 62
     2
 10
-25.4
 20
646.999999999997
 30
-0.0000000001925713
 11
-28.40000000000484
 21
649.999999999992
 31
-0.000000000193062
  0
LINE
  5
136
  8
OUTLINE__1_5_2_
  6
CONTINUOUS
 62
     2
 10
-183.9429612874985
 20
27.0384271621674
 30
-0.0000002266852222
 11
-180.7044613480568
 21
27.0384271621674
 31
-0.0000002266852222
  0
LINE
  5
137
  8
OUTLINE__1_5_2_
  6
CONTINUOUS
 62
     2
 10
-25.4
 20
646.999999999997
 30
-0.0000000001925713
 11
-25.4
 21
0.0
 31
0.0
  0
LINE
  5
138
  8
OUTLINE__1_5_2_
  6
CONTINUOUS
 62
     2
 10
-178.0731804311276
 20
27.5940520107716
 30
-0.0000002266852222
 11
-178.0731804311276
 21
23.4665521621674
 31
-0.0000002266852222
  0
LINE
  5
139
  8
OUTLINE__1_5_2_
  6
CONTINUOUS
 62
     2
 10
-167.2781805068254
 20
27.5940520107716
 30
-0.0000002266852222
 11
-167.2781805068254
 21
23.4665521621674
 31
-0.0000002266852222
  0
LINE
  5
13A
  8
OUTLINE__1_5_2_
  6
CONTINUOUS
 62
     2
 10
-160.8011802494526
 20
23.4665521621674
 30
-0.0000002266852222
 11
-160.8011802494526
 21
29.8165521621674
 31
-0.0000002266852222
  0
LINE
  5
13B
  8
OUTLINE__1_5_2_
  6
CONTINUOUS
 62
     2
 10
-161.8806792199612
 20
27.5940520107716
 30
-0.0000002266852222
 11
-159.1144614994526
 21
27.5940520107716
 31
-0.0000002266852222
  0
LINE
  5
13C
  8
OUTLINE__1_5_2_
  6
CONTINUOUS
 62
     2
 10
-167.2781805068254
 20
25.9271770864695
 30
-0.0000002266852222
 11
-167.0083057641983
 21
26.9193645864695
 31
-0.0000002266852222
  0
POLYLINE
  5
13D
  8
OUTLINE__1_5_2_
  6
CONTINUOUS
 62
     2
 66
     1
 10
0.0
 20
0.0
 30
0.000000226685222
 70
     1
210
0.0
220
0.0
230
-1.0
  0
VERTEX
  5
254
  8
OUTLINE__1_5_2_
  6
CONTINUOUS
 62
     2
 10
170.8202900521457
 20
27.5146770864695
 30
0.000000226685222
  0
VERTEX
  5
255
  8
OUTLINE__1_5_2_
  6
CONTINUOUS
 62
     2
 10
171.6973832495511
 20
27.5146770864695
 30
0.000000226685222
  0
VERTEX
  5
256
  8
OUTLINE__1_5_2_
  6
CONTINUOUS
 62
     2
 10
172.4058059155941
 20
26.9193645864695
 30
0.000000226685222
  0
VERTEX
  5
257
  8
OUTLINE__1_5_2_
  6
CONTINUOUS
 62
     2
 10
172.6756806582213
 20
25.9271770864695
 30
0.000000226685222
  0
VERTEX
  5
258
  8
OUTLINE__1_5_2_
  6
CONTINUOUS
 62
     2
 10
172.6756806582213
 20
25.1334270864695
 30
0.000000226685222
  0
VERTEX
  5
259
  8
OUTLINE__1_5_2_
  6
CONTINUOUS
 62
     2
 10
172.4058059155941
 20
24.1412395864695
 30
0.000000226685222
  0
VERTEX
  5
25A
  8
OUTLINE__1_5_2_
  6
CONTINUOUS
 62
     2
 10
171.6973832495511
 20
23.5459270864695
 30
0.000000226685222
  0
VERTEX
  5
25B
  8
OUTLINE__1_5_2_
  6
CONTINUOUS
 62
     2
 10
170.8202900521457
 20
23.5459270864695
 30
0.000000226685222
  0
VERTEX
  5
25C
  8
OUTLINE__1_5_2_
  6
CONTINUOUS
 62
     2
 10
170.1118673861027
 20
24.1412395864695
 30
0.000000226685222
  0
VERTEX
  5
25D
  8
OUTLINE__1_5_2_
  6
CONTINUOUS
 62
     2
 10
169.8419926434755
 20
25.1334270864695
 30
0.000000226685222
  0
VERTEX
  5
25E
  8
OUTLINE__1_5_2_
  6
CONTINUOUS
 62
     2
 10
169.8419926434755
 20
25.9271770864695
 30
0.000000226685222
  0
VERTEX
  5
25F
  8
OUTLINE__1_5_2_
  6
CONTINUOUS
 62
     2
 10
170.1118673861027
 20
26.9193645864695
 30
0.000000226685222
  0
SEQEND
  5
2C5
  8
OUTLINE__1_5_2_
  6
CONTINUOUS
 62
     2
  0
POLYLINE
  5
14A
  8
OUTLINE__1_5_2_
  6
CONTINUOUS
 62
     2
 66
     1
 10
0.0
 20
0.0
 30
-0.000000226685222
  0
VERTEX
  5
260
  8
OUTLINE__1_5_2_
  6
CONTINUOUS
 62
     2
 10
-178.0731804311276
 20
25.9271770864695
 30
-0.000000226685222
  0
VERTEX
  5
261
  8
OUTLINE__1_5_2_
  6
CONTINUOUS
 62
     2
 10
-177.8707740902901
 20
26.8003020107716
 30
-0.000000226685222
  0
VERTEX
  5
262
  8
OUTLINE__1_5_2_
  6
CONTINUOUS
 62
     2
 10
-177.3310242265463
 20
27.3956145107716
 30
-0.000000226685222
  0
VERTEX
  5
263
  8
OUTLINE__1_5_2_
  6
CONTINUOUS
 62
     2
 10
-176.5888676434755
 20
27.5940520107716
 30
-0.000000226685222
  0
VERTEX
  5
264
  8
OUTLINE__1_5_2_
  6
CONTINUOUS
 62
     2
 10
-175.8804462075234
 20
27.3162395864695
 30
-0.000000226685222
  0
VERTEX
  5
265
  8
OUTLINE__1_5_2_
  6
CONTINUOUS
 62
     2
 10
-175.3744307339192
 20
26.6415521621674
 30
-0.000000226685222
  0
SEQEND
  5
2C6
  8
OUTLINE__1_5_2_
  6
CONTINUOUS
 62
     2
  0
POLYLINE
  5
151
  8
OUTLINE__1_5_2_
  6
CONTINUOUS
 62
     2
 66
     1
 10
0.0
 20
0.0
 30
0.000000226685222
210
0.0
220
0.0
230
-1.0
  0
VERTEX
  5
266
  8
OUTLINE__1_5_2_
  6
CONTINUOUS
 62
     2
 10
183.9429612874985
 20
23.4665521621674
 30
0.000000226685222
  0
VERTEX
  5
267
  8
OUTLINE__1_5_2_
  6
CONTINUOUS
 62
     2
 10
183.9429612874985
 20
29.81655216216739
 30
0.000000226685222
  0
VERTEX
  5
268
  8
OUTLINE__1_5_2_
  6
CONTINUOUS
 62
     2
 10
180.1647118628025
 20
29.81655216216739
 30
0.000000226685222
  0
SEQEND
  5
2C7
  8
OUTLINE__1_5_2_
  6
CONTINUOUS
 62
     2
  0
POLYLINE
  5
155
  8
OUTLINE__1_5_2_
  6
CONTINUOUS
 62
     2
 66
     1
 10
0.0
 20
0.0
 30
0.000000226685222
210
0.0
220
0.0
230
-1.0
  0
VERTEX
  5
269
  8
OUTLINE__1_5_2_
  6
CONTINUOUS
 62
     2
 10
167.0083057641983
 20
26.9193645864695
 30
0.000000226685222
  0
VERTEX
  5
26A
  8
OUTLINE__1_5_2_
  6
CONTINUOUS
 62
     2
 10
166.2998831927777
 20
27.5146770864695
 30
0.000000226685222
  0
VERTEX
  5
26B
  8
OUTLINE__1_5_2_
  6
CONTINUOUS
 62
     2
 10
165.4227901846171
 20
27.5146770864695
 30
0.000000226685222
  0
VERTEX
  5
26C
  8
OUTLINE__1_5_2_
  6
CONTINUOUS
 62
     2
 10
164.7143672347069
 20
26.9193645864695
 30
0.000000226685222
  0
VERTEX
  5
26D
  8
OUTLINE__1_5_2_
  6
CONTINUOUS
 62
     2
 10
164.4444928705692
 20
25.9271770864695
 30
0.000000226685222
  0
VERTEX
  5
26E
  8
OUTLINE__1_5_2_
  6
CONTINUOUS
 62
     2
 10
164.4444928705692
 20
23.4665521621674
 30
0.000000226685222
  0
SEQEND
  5
2C8
  8
OUTLINE__1_5_2_
  6
CONTINUOUS
 62
     2
  0
ARC
  5
15C
  8
OUTLINE__1_5_2_
  6
CONTINUOUS
 62
     2
 10
-65.39999999999992
 20
614.9999999999968
 30
-0.0000000001895737
 40
9.99999999999992
 50
0.0000000000006514
 51
90.0000000000005
  0
ARC
  5
15D
  8
OUTLINE__1_5_2_
  6
CONTINUOUS
 62
     2
 10
-315.4
 20
341.4999999999969
 30
-0.0000000000975906
 40
10.0
 50
179.9999999999994
 51
270.0
  0
ARC
  5
15E
  8
OUTLINE__1_5_2_
  6
CONTINUOUS
 62
     2
 10
-315.4
 20
614.9999999999968
 30
-0.0000000001895892
 40
10.00000000000004
 50
89.99999999999969
 51
180.0
  0
ARC
  5
15F
  8
OUTLINE__1_5_2_
  6
CONTINUOUS
 62
     2
 10
-133.95
 20
191.6499999999969
 30
-0.0000000000575781
 40
7.500000000000005
 50
24.414402314914
 51
155.585597685116
  0
ARC
  5
160
  8
OUTLINE__1_5_2_
  6
CONTINUOUS
 62
     2
 10
-65.39999999999998
 20
341.4999999999969
 30
-0.0000000000975751
 40
10.0
 50
270.0
 51
0.0
  0
ARC
  5
161
  8
OUTLINE__1_5_2_
  6
CONTINUOUS
 62
     2
 10
-133.95
 20
191.6499999999969
 30
-0.0000000000575781
 40
7.500000000000005
 50
202.7472480084932
 51
337.2527519915664
  0
CIRCLE
  5
162
  8
OUTLINE__1_5_2_
  6
CONTINUOUS
 62
     2
 10
-340.4000000000001
 20
592.499999999997
 30
-0.0000000001775916
 40
2.749999999999982
  0
CIRCLE
  5
163
  8
OUTLINE__1_5_2_
  6
CONTINUOUS
 62
     2
 10
-71.99999999999996
 20
191.6499999999969
 30
-0.0000000000575738
 40
11.49999999999998
  0
CIRCLE
  5
164
  8
OUTLINE__1_5_2_
  6
CONTINUOUS
 62
     2
 10
-340.4000000000001
 20
628.999999999997
 30
-0.0000000001875912
 40
1.750000000000054
  0
CIRCLE
  5
165
  8
OUTLINE__1_5_2_
  6
CONTINUOUS
 62
     2
 10
-40.4
 20
15.99999999999699
 30
-0.0000000000075716
 40
1.750000000000002
  0
CIRCLE
  5
166
  8
OUTLINE__1_5_2_
  6
CONTINUOUS
 62
     2
 10
-71.99999999999999
 20
225.2499999999969
 30
-0.0000000000675734
 40
3.999999999999992
  0
CIRCLE
  5
167
  8
OUTLINE__1_5_2_
  6
CONTINUOUS
 62
     2
 10
-340.4000000000001
 20
294.499999999997
 30
-0.000000000087591
 40
1.750000000000004
  0
CIRCLE
  5
168
  8
OUTLINE__1_5_2_
  6
CONTINUOUS
 62
     2
 10
-340.4000000000001
 20
408.9999999999972
 30
-0.0000000001175912
 40
2.750000000000032
  0
CIRCLE
  5
169
  8
OUTLINE__1_5_2_
  6
CONTINUOUS
 62
     2
 10
-40.39999999999998
 20
628.999999999997
 30
-0.0000000001875729
 40
1.750000000000014
  0
CIRCLE
  5
16A
  8
OUTLINE__1_5_2_
  6
CONTINUOUS
 62
     2
 10
-340.4000000000001
 20
383.999999999997
 30
-0.0000000001175912
 40
2.750000000000012
  0
CIRCLE
  5
16B
  8
OUTLINE__1_5_2_
  6
CONTINUOUS
 62
     2
 10
-340.4000000000001
 20
567.499999999997
 30
-0.0000000001675906
 40
2.749999999999982
  0
CIRCLE
  5
16C
  8
OUTLINE__1_5_2_
  6
CONTINUOUS
 62
     2
 10
-40.39999999999999
 20
294.499999999997
 30
-0.0000000000875726
 40
1.749999999999974
  0
CIRCLE
  5
16D
  8
OUTLINE__1_5_2_
  6
CONTINUOUS
 62
     2
 10
-340.4000000000001
 20
15.99999999999699
 30
-0.0000000000075899
 40
1.749999999999994
  0
LINE
  5
16E
  8
OUTLINE__1_4_2_
  6
CONTINUOUS
 62
     2
 10
310.0
 20
0.0
 30
0.0000000000000183
 11
0.0
 21
0.0
 31
0.0
  0
LINE
  5
16F
  8
OUTLINE__1_4_2_
  6
CONTINUOUS
 62
     2
 10
310.0
 20
649.9999999999999
 30
0.0000000000000183
 11
310.0
 21
-0.0000000000000536
 31
0.0000000000000183
  0
LINE
  5
170
  8
OUTLINE__1_4_2_
  6
CONTINUOUS
 62
     2
 10
169.7092528581619
 20
51.54608821868896
 30
-0.0000002264976493
 11
169.7092528581619
 21
57.89608821868897
 31
-0.0000002264976493
  0
LINE
  5
171
  8
OUTLINE__1_4_2_
  6
CONTINUOUS
 62
     2
 10
-0.0000000000000169
 20
649.9999999999999
 30
0.0
 11
310.0
 21
649.9999999999999
 31
0.0000000000000183
  0
LINE
  5
172
  8
OUTLINE__1_4_2_
  6
CONTINUOUS
 62
     2
 10
-0.0000000000000169
 20
0.0
 30
0.0
 11
-0.0000000000000169
 21
650.0
 31
0.0
  0
LINE
  5
173
  8
OUTLINE__1_4_2_
  6
CONTINUOUS
 62
     2
 10
137.8640052199364
 20
55.51483821868896
 30
-0.0000002264976493
 11
139.8880671143532
 21
55.51483821868896
 31
-0.0000002264976493
  0
LINE
  5
174
  8
OUTLINE__1_4_2_
  6
CONTINUOUS
 62
     2
 10
144.2735355615616
 20
51.54608821868896
 30
-0.0000002264976493
 11
144.2735355615616
 21
57.89608821868897
 31
-0.0000002264976493
  0
LINE
  5
175
  8
OUTLINE__1_4_2_
  6
CONTINUOUS
 62
     2
 10
143.194036591053
 20
55.67358806729317
 30
-0.0000002264976493
 11
145.9602543115616
 21
55.67358806729317
 31
-0.0000002264976493
  0
LINE
  5
176
  8
OUTLINE__1_4_2_
  6
CONTINUOUS
 62
     2
 10
159.3865372344851
 20
55.67358806729317
 30
-0.0000002264976493
 11
159.3865372344851
 21
51.54608821868896
 31
-0.0000002264976493
  0
LINE
  5
177
  8
OUTLINE__1_4_2_
  6
CONTINUOUS
 62
     2
 10
171.2273000359535
 20
54.72108821868896
 30
-0.0000002264976493
 11
173.4875068247318
 21
51.54608821868896
 31
-0.0000002264976493
  0
LINE
  5
178
  8
OUTLINE__1_4_2_
  6
CONTINUOUS
 62
     2
 10
172.1381319761276
 20
54.72108821868896
 30
-0.0000002264976493
 11
169.7092528581619
 21
54.72108821868896
 31
-0.0000002264976493
  0
LINE
  5
179
  8
OUTLINE__1_4_2_
  6
CONTINUOUS
 62
     2
 10
169.7092528581619
 20
57.89608821868897
 30
-0.0000002264976493
 11
172.1381319761276
 21
57.89608821868897
 31
-0.0000002264976493
  0
LINE
  5
17A
  8
OUTLINE__1_4_2_
  6
CONTINUOUS
 62
     2
 10
176.9958796143532
 20
57.89608821868897
 30
-0.0000002264976493
 11
176.9958796143532
 21
56.94358837008476
 31
-0.0000002264976493
  0
LINE
  5
17B
  8
OUTLINE__1_4_2_
  6
CONTINUOUS
 62
     2
 10
176.9958796143532
 20
55.67358806729317
 30
-0.0000002264976493
 11
176.9958796143532
 21
51.54608821868896
 31
-0.0000002264976493
  0
LINE
  5
17C
  8
OUTLINE__1_4_2_
  6
CONTINUOUS
 62
     2
 10
186.3740362882614
 20
57.89608821868897
 30
-0.0000002264976493
 11
186.3740362882614
 21
51.54608821868896
 31
-0.0000002264976493
  0
LINE
  5
17D
  8
OUTLINE__1_4_2_
  6
CONTINUOUS
 62
     2
 10
192.8510361671448
 20
51.54608821868896
 30
-0.0000002264976493
 11
192.8510361671448
 21
57.89608821868897
 31
-0.0000002264976493
  0
LINE
  5
17E
  8
OUTLINE__1_4_2_
  6
CONTINUOUS
 62
     2
 10
191.7715387105942
 20
55.67358806729317
 30
-0.0000002264976493
 11
194.5377549171448
 21
55.67358806729317
 31
-0.0000002264976493
  0
POLYLINE
  5
17F
  8
OUTLINE__1_4_2_
  6
CONTINUOUS
 62
     2
 66
     1
 10
0.0
 20
0.0
 30
-0.0000002264976499
  0
VERTEX
  5
26F
  8
OUTLINE__1_4_2_
  6
CONTINUOUS
 62
     2
 10
186.3740362882614
 20
53.60983814299107
 30
-0.0000002264976499
  0
VERTEX
  5
270
  8
OUTLINE__1_4_2_
  6
CONTINUOUS
 62
     2
 10
186.643914437294
 20
54.60202564299107
 30
-0.0000002264976499
  0
VERTEX
  5
271
  8
OUTLINE__1_4_2_
  6
CONTINUOUS
 62
     2
 10
187.3523317098617
 20
55.19733814299107
 30
-0.0000002264976499
  0
VERTEX
  5
272
  8
OUTLINE__1_4_2_
  6
CONTINUOUS
 62
     2
 10
188.2294281244278
 20
55.19733814299107
 30
-0.0000002264976499
  0
VERTEX
  5
273
  8
OUTLINE__1_4_2_
  6
CONTINUOUS
 62
     2
 10
188.9378453969955
 20
54.60202564299107
 30
-0.0000002264976499
  0
VERTEX
  5
274
  8
OUTLINE__1_4_2_
  6
CONTINUOUS
 62
     2
 10
189.2077235460281
 20
53.60983814299107
 30
-0.0000002264976499
  0
VERTEX
  5
275
  8
OUTLINE__1_4_2_
  6
CONTINUOUS
 62
     2
 10
189.2077235460281
 20
51.54608821868897
 30
-0.0000002264976499
  0
SEQEND
  5
2C9
  8
OUTLINE__1_4_2_
  6
CONTINUOUS
 62
     2
  0
POLYLINE
  5
187
  8
OUTLINE__1_4_2_
  6
CONTINUOUS
 62
     2
 66
     1
 10
0.0
 20
0.0
 30
-0.0000002264976499
  0
VERTEX
  5
276
  8
OUTLINE__1_4_2_
  6
CONTINUOUS
 62
     2
 10
183.8102226376533
 20
55.67358806729317
 30
-0.0000002264976499
  0
VERTEX
  5
277
  8
OUTLINE__1_4_2_
  6
CONTINUOUS
 62
     2
 10
183.8102226376533
 20
50.67296291589737
 30
-0.0000002264976499
  0
VERTEX
  5
278
  8
OUTLINE__1_4_2_
  6
CONTINUOUS
 62
     2
 10
183.6078200817108
 20
49.79983837008477
 30
-0.0000002264976499
  0
VERTEX
  5
279
  8
OUTLINE__1_4_2_
  6
CONTINUOUS
 62
     2
 10
183.0680668115616
 20
49.20452587008477
 30
-0.0000002264976499
  0
VERTEX
  5
27A
  8
OUTLINE__1_4_2_
  6
CONTINUOUS
 62
     2
 10
182.3259124994278
 20
49.00608837008477
 30
-0.0000002264976499
  0
VERTEX
  5
27B
  8
OUTLINE__1_4_2_
  6
CONTINUOUS
 62
     2
 10
181.6174876570701
 20
49.28390041589738
 30
-0.0000002264976499
  0
VERTEX
  5
27C
  8
OUTLINE__1_4_2_
  6
CONTINUOUS
 62
     2
 10
181.1114729404449
 20
49.95858821868897
 30
-0.0000002264976499
  0
SEQEND
  5
2CA
  8
OUTLINE__1_4_2_
  6
CONTINUOUS
 62
     2
  0
POLYLINE
  5
18F
  8
OUTLINE__1_4_2_
  6
CONTINUOUS
 62
     2
 66
     1
 10
0.0
 20
0.0
 30
-0.0000002264976499
  0
VERTEX
  5
27D
  8
OUTLINE__1_4_2_
  6
CONTINUOUS
 62
     2
 10
183.8102226376533
 20
54.00671314299107
 30
-0.0000002264976499
  0
VERTEX
  5
27E
  8
OUTLINE__1_4_2_
  6
CONTINUOUS
 62
     2
 10
183.5403460025787
 20
54.99890064299107
 30
-0.0000002264976499
  0
VERTEX
  5
27F
  8
OUTLINE__1_4_2_
  6
CONTINUOUS
 62
     2
 10
182.831927216053
 20
55.59421314299107
 30
-0.0000002264976499
  0
VERTEX
  5
280
  8
OUTLINE__1_4_2_
  6
CONTINUOUS
 62
     2
 10
181.9548323154449
 20
55.59421314299107
 30
-0.0000002264976499
  0
VERTEX
  5
281
  8
OUTLINE__1_4_2_
  6
CONTINUOUS
 62
     2
 10
181.2464135289192
 20
54.99890064299107
 30
-0.0000002264976499
  0
VERTEX
  5
282
  8
OUTLINE__1_4_2_
  6
CONTINUOUS
 62
     2
 10
180.9765368938446
 20
54.00671314299107
 30
-0.0000002264976499
  0
VERTEX
  5
283
  8
OUTLINE__1_4_2_
  6
CONTINUOUS
 62
     2
 10
180.9765368938446
 20
53.21296314299107
 30
-0.0000002264976499
  0
VERTEX
  5
284
  8
OUTLINE__1_4_2_
  6
CONTINUOUS
 62
     2
 10
181.2464135289192
 20
52.22077564299107
 30
-0.0000002264976499
  0
VERTEX
  5
285
  8
OUTLINE__1_4_2_
  6
CONTINUOUS
 62
     2
 10
181.9548323154449
 20
51.62546314299107
 30
-0.0000002264976499
  0
VERTEX
  5
286
  8
OUTLINE__1_4_2_
  6
CONTINUOUS
 62
     2
 10
182.831927216053
 20
51.62546314299107
 30
-0.0000002264976499
  0
VERTEX
  5
287
  8
OUTLINE__1_4_2_
  6
CONTINUOUS
 62
     2
 10
183.5403460025787
 20
52.22077564299107
 30
-0.0000002264976499
  0
VERTEX
  5
288
  8
OUTLINE__1_4_2_
  6
CONTINUOUS
 62
     2
 10
183.8102226376533
 20
53.21296314299107
 30
-0.0000002264976499
  0
SEQEND
  5
2CB
  8
OUTLINE__1_4_2_
  6
CONTINUOUS
 62
     2
  0
POLYLINE
  5
19C
  8
OUTLINE__1_4_2_
  6
CONTINUOUS
 62
     2
 66
     1
 10
0.0
 20
0.0
 30
0.0000002264976499
210
0.0
220
0.0
230
-1.0
  0
VERTEX
  5
289
  8
OUTLINE__1_4_2_
  6
CONTINUOUS
 62
     2
 10
-172.1381319761276
 20
54.72108821868897
 30
0.0000002264976499
  0
VERTEX
  5
28A
  8
OUTLINE__1_4_2_
  6
CONTINUOUS
 62
     2
 10
-172.6104111671447
 20
54.84015079438687
 30
0.0000002264976499
  0
VERTEX
  5
28B
  8
OUTLINE__1_4_2_
  6
CONTINUOUS
 62
     2
 10
-173.0152223348617
 20
55.07827556729318
 30
0.0000002264976499
  0
VERTEX
  5
28C
  8
OUTLINE__1_4_2_
  6
CONTINUOUS
 62
     2
 10
-173.3188352525234
 20
55.51483821868897
 30
0.0000002264976499
  0
VERTEX
  5
28D
  8
OUTLINE__1_4_2_
  6
CONTINUOUS
 62
     2
 10
-173.4537705421448
 20
56.03077579438687
 30
0.0000002264976499
  0
VERTEX
  5
28E
  8
OUTLINE__1_4_2_
  6
CONTINUOUS
 62
     2
 10
-173.4537705421448
 20
56.58640064299107
 30
0.0000002264976499
  0
VERTEX
  5
28F
  8
OUTLINE__1_4_2_
  6
CONTINUOUS
 62
     2
 10
-173.3188352525234
 20
57.10233821868897
 30
0.0000002264976499
  0
VERTEX
  5
290
  8
OUTLINE__1_4_2_
  6
CONTINUOUS
 62
     2
 10
-173.0152223348617
 20
57.53890087008477
 30
0.0000002264976499
  0
VERTEX
  5
291
  8
OUTLINE__1_4_2_
  6
CONTINUOUS
 62
     2
 10
-172.6104111671447
 20
57.77702564299107
 30
0.0000002264976499
  0
VERTEX
  5
292
  8
OUTLINE__1_4_2_
  6
CONTINUOUS
 62
     2
 10
-172.1381319761276
 20
57.89608821868897
 30
0.0000002264976499
  0
SEQEND
  5
2CC
  8
OUTLINE__1_4_2_
  6
CONTINUOUS
 62
     2
  0
POLYLINE
  5
1A7
  8
OUTLINE__1_4_2_
  6
CONTINUOUS
 62
     2
 66
     1
 10
0.0
 20
0.0
 30
-0.0000002264976499
  0
VERTEX
  5
293
  8
OUTLINE__1_4_2_
  6
CONTINUOUS
 62
     2
 10
159.3865372344851
 20
54.00671314299107
 30
-0.0000002264976499
  0
VERTEX
  5
294
  8
OUTLINE__1_4_2_
  6
CONTINUOUS
 62
     2
 10
159.588942912966
 20
54.87983806729317
 30
-0.0000002264976499
  0
VERTEX
  5
295
  8
OUTLINE__1_4_2_
  6
CONTINUOUS
 62
     2
 10
160.1286923982203
 20
55.47515056729317
 30
-0.0000002264976499
  0
VERTEX
  5
296
  8
OUTLINE__1_4_2_
  6
CONTINUOUS
 62
     2
 10
160.8708476388361
 20
55.67358806729317
 30
-0.0000002264976499
  0
VERTEX
  5
297
  8
OUTLINE__1_4_2_
  6
CONTINUOUS
 62
     2
 10
161.5792715527117
 20
55.39577564299107
 30
-0.0000002264976499
  0
VERTEX
  5
298
  8
OUTLINE__1_4_2_
  6
CONTINUOUS
 62
     2
 10
162.0852872155606
 20
54.72108821868897
 30
-0.0000002264976499
  0
SEQEND
  5
2CD
  8
OUTLINE__1_4_2_
  6
CONTINUOUS
 62
     2
  0
POLYLINE
  5
1AE
  8
OUTLINE__1_4_2_
  6
CONTINUOUS
 62
     2
 66
     1
 10
0.0
 20
0.0
 30
-0.0000002264976499
 70
     1
  0
VERTEX
  5
299
  8
OUTLINE__1_4_2_
  6
CONTINUOUS
 62
     2
 10
155.844427973032
 20
55.59421314299107
 30
-0.0000002264976499
  0
VERTEX
  5
29A
  8
OUTLINE__1_4_2_
  6
CONTINUOUS
 62
     2
 10
154.9673319369554
 20
55.59421314299107
 30
-0.0000002264976499
  0
VERTEX
  5
29B
  8
OUTLINE__1_4_2_
  6
CONTINUOUS
 62
     2
 10
154.2589105010032
 20
54.99890064299107
 30
-0.0000002264976499
  0
VERTEX
  5
29C
  8
OUTLINE__1_4_2_
  6
CONTINUOUS
 62
     2
 10
153.9890368938446
 20
54.00671314299107
 30
-0.0000002264976499
  0
VERTEX
  5
29D
  8
OUTLINE__1_4_2_
  6
CONTINUOUS
 62
     2
 10
153.9890368938446
 20
53.21296314299107
 30
-0.0000002264976499
  0
VERTEX
  5
29E
  8
OUTLINE__1_4_2_
  6
CONTINUOUS
 62
     2
 10
154.2589105010032
 20
52.22077564299107
 30
-0.0000002264976499
  0
VERTEX
  5
29F
  8
OUTLINE__1_4_2_
  6
CONTINUOUS
 62
     2
 10
154.9673319369554
 20
51.62546314299107
 30
-0.0000002264976499
  0
VERTEX
  5
2A0
  8
OUTLINE__1_4_2_
  6
CONTINUOUS
 62
     2
 10
155.844427973032
 20
51.62546314299107
 30
-0.0000002264976499
  0
VERTEX
  5
2A1
  8
OUTLINE__1_4_2_
  6
CONTINUOUS
 62
     2
 10
156.5528490304947
 20
52.22077564299107
 30
-0.0000002264976499
  0
VERTEX
  5
2A2
  8
OUTLINE__1_4_2_
  6
CONTINUOUS
 62
     2
 10
156.8227226376533
 20
53.21296314299107
 30
-0.0000002264976499
  0
VERTEX
  5
2A3
  8
OUTLINE__1_4_2_
  6
CONTINUOUS
 62
     2
 10
156.8227226376533
 20
54.00671314299107
 30
-0.0000002264976499
  0
VERTEX
  5
2A4
  8
OUTLINE__1_4_2_
  6
CONTINUOUS
 62
     2
 10
156.5528490304947
 20
54.99890064299107
 30
-0.0000002264976499
  0
SEQEND
  5
2CE
  8
OUTLINE__1_4_2_
  6
CONTINUOUS
 62
     2
  0
POLYLINE
  5
1BB
  8
OUTLINE__1_4_2_
  6
CONTINUOUS
 62
     2
 66
     1
 10
0.0
 20
0.0
 30
-0.0000002264976499
  0
VERTEX
  5
2A5
  8
OUTLINE__1_4_2_
  6
CONTINUOUS
 62
     2
 10
140.0230061888695
 20
57.89608821868897
 30
-0.0000002264976499
  0
VERTEX
  5
2A6
  8
OUTLINE__1_4_2_
  6
CONTINUOUS
 62
     2
 10
139.5507239699363
 20
57.89608821868897
 30
-0.0000002264976499
  0
VERTEX
  5
2A7
  8
OUTLINE__1_4_2_
  6
CONTINUOUS
 62
     2
 10
139.0784417510032
 20
57.65796306729317
 30
-0.0000002264976499
  0
VERTEX
  5
2A8
  8
OUTLINE__1_4_2_
  6
CONTINUOUS
 62
     2
 10
138.8760361671447
 20
57.10233821868897
 30
-0.0000002264976499
  0
VERTEX
  5
2A9
  8
OUTLINE__1_4_2_
  6
CONTINUOUS
 62
     2
 10
138.8760361671447
 20
51.54608821868897
 30
-0.0000002264976499
  0
SEQEND
  5
2CF
  8
OUTLINE__1_4_2_
  6
CONTINUOUS
 62
     2
  0
POLYLINE
  5
1C1
  8
OUTLINE__1_4_2_
  6
CONTINUOUS
 62
     2
 66
     1
 10
0.0
 20
0.0
 30
-0.0000002264976499
  0
VERTEX
  5
2AA
  8
OUTLINE__1_4_2_
  6
CONTINUOUS
 62
     2
 10
132.3990362882614
 20
54.00671314299107
 30
-0.0000002264976499
  0
VERTEX
  5
2AB
  8
OUTLINE__1_4_2_
  6
CONTINUOUS
 62
     2
 10
135.2327235460281
 20
54.00671314299107
 30
-0.0000002264976499
  0
VERTEX
  5
2AC
  8
OUTLINE__1_4_2_
  6
CONTINUOUS
 62
     2
 10
134.9628484249115
 20
54.99890064299107
 30
-0.0000002264976499
  0
VERTEX
  5
2AD
  8
OUTLINE__1_4_2_
  6
CONTINUOUS
 62
     2
 10
134.2544250965118
 20
55.59421314299107
 30
-0.0000002264976499
  0
VERTEX
  5
2AE
  8
OUTLINE__1_4_2_
  6
CONTINUOUS
 62
     2
 10
133.3773347377777
 20
55.59421314299107
 30
-0.0000002264976499
  0
VERTEX
  5
2AF
  8
OUTLINE__1_4_2_
  6
CONTINUOUS
 62
     2
 10
132.668911409378
 20
54.99890064299107
 30
-0.0000002264976499
  0
VERTEX
  5
2B0
  8
OUTLINE__1_4_2_
  6
CONTINUOUS
 62
     2
 10
132.3990362882614
 20
54.00671314299107
 30
-0.0000002264976499
  0
VERTEX
  5
2B1
  8
OUTLINE__1_4_2_
  6
CONTINUOUS
 62
     2
 10
132.3990362882614
 20
53.21296314299107
 30
-0.0000002264976499
  0
VERTEX
  5
2B2
  8
OUTLINE__1_4_2_
  6
CONTINUOUS
 62
     2
 10
132.6351773977279
 20
52.30015056729317
 30
-0.0000002264976499
  0
VERTEX
  5
2B3
  8
OUTLINE__1_4_2_
  6
CONTINUOUS
 62
     2
 10
133.2086616516113
 20
51.70483806729317
 30
-0.0000002264976499
  0
VERTEX
  5
2B4
  8
OUTLINE__1_4_2_
  6
CONTINUOUS
 62
     2
 10
134.0182870149612
 20
51.54608821868897
 30
-0.0000002264976499
  0
VERTEX
  5
2B5
  8
OUTLINE__1_4_2_
  6
CONTINUOUS
 62
     2
 10
134.7267073154449
 20
51.94296321868897
 30
-0.0000002264976499
  0
VERTEX
  5
2B6
  8
OUTLINE__1_4_2_
  6
CONTINUOUS
 62
     2
 10
135.1652555227279
 20
52.73671321868897
 30
-0.0000002264976499
  0
SEQEND
  5
2D0
  8
OUTLINE__1_4_2_
  6
CONTINUOUS
 62
     2
  0
POLYLINE
  5
1CF
  8
OUTLINE__1_4_2_
  6
CONTINUOUS
 62
     2
 66
     1
 10
0.0
 20
0.0
 30
0.0000002264976499
210
0.0
220
0.0
230
-1.0
  0
VERTEX
  5
2B7
  8
OUTLINE__1_4_2_
  6
CONTINUOUS
 62
     2
 10
-126.5292546749115
 20
57.89608821868897
 30
0.0000002264976499
  0
VERTEX
  5
2B8
  8
OUTLINE__1_4_2_
  6
CONTINUOUS
 62
     2
 10
-126.5292546749115
 20
51.54608821868897
 30
0.0000002264976499
  0
VERTEX
  5
2B9
  8
OUTLINE__1_4_2_
  6
CONTINUOUS
 62
     2
 10
-130.3075063705444
 20
51.54608821868897
 30
0.0000002264976499
  0
SEQEND
  5
2D1
  8
OUTLINE__1_4_2_
  6
CONTINUOUS
 62
     2
  0
CIRCLE
  5
1D3
  8
OUTLINE__1_4_2_
  6
CONTINUOUS
 62
     2
 10
9.999999999999982
 20
20.00000000000001
 30
0.0
 40
1.750000000000001
  0
CIRCLE
  5
1D4
  8
OUTLINE__1_4_2_
  6
CONTINUOUS
 62
     2
 10
10.0
 20
331.5000000000001
 30
0.0
 40
1.749999999999974
  0
CIRCLE
  5
1D5
  8
OUTLINE__1_4_2_
  6
CONTINUOUS
 62
     2
 10
10.00000000000006
 20
625.0
 30
0.0
 40
1.749999999999974
  0
CIRCLE
  5
1D6
  8
OUTLINE__1_4_2_
  6
CONTINUOUS
 62
     2
 10
300.0
 20
625.0
 30
0.0000000000000183
 40
1.749999999999994
  0
CIRCLE
  5
1D7
  8
OUTLINE__1_4_2_
  6
CONTINUOUS
 62
     2
 10
299.9999999999999
 20
331.4999999999999
 30
0.0000000000000183
 40
1.750000000000044
  0
CIRCLE
  5
1D8
  8
OUTLINE__1_4_2_
  6
CONTINUOUS
 62
     2
 10
299.9999999999999
 20
20.00000000000003
 30
0.0000000000000183
 40
1.749999999999994
  0
VIEWPORT
  5
1D9
 67
     1
  8
0
 62
     3
 10
128.5
 20
97.5
 30
0.0
 40
314.226
 41
222.18
 68
     1
 69
     1
1001
ACAD
1000
MVIEW
1002
{
1070
    16
1010
0.0
1020
0.0
1030
0.0
1010
0.0
1020
0.0
1030
1.0
1040
0.0
1040
222.18
1040
128.5
1040
97.5
1040
50.0
1040
0.0
1040
0.0
1070
     0
1070
   100
1070
     0
1070
     3
1070
     0
1070
     0
1070
     0
1070
     0
1040
0.0
1040
0.0
1040
0.0
1040
10.0
1040
10.0
1040
10.0
1040
10.0
1070
     0
1002
{
1002
}
1002
}
  0
ENDSEC
  0
EOF
