  0
SECTION
  2
HEADER
  9
$ACADVER
  1
AC1009
  9
$DWGCODEPAGE
  3
ansi_1252
  9
$INSBASE
 10
0.0
 20
0.0
 30
0.0
  9
$EXTMIN
 10
1.000000000000000E+20
 20
1.000000000000000E+20
 30
1.000000000000000E+20
  9
$EXTMAX
 10
-1.000000000000000E+20
 20
-1.000000000000000E+20
 30
-1.000000000000000E+20
  9
$LIMMIN
 10
0.0
 20
0.0
  9
$LIMMAX
 10
12.0
 20
9.0
  9
$ORTHOMODE
 70
     0
  9
$REGENMODE
 70
     1
  9
$FILLMODE
 70
     1
  9
$QTEXTMODE
 70
     0
  9
$MIRRTEXT
 70
     1
  9
$DRAGMODE
 70
     2
  9
$LTSCALE
 40
1.0
  9
$OSMODE
 70
    37
  9
$ATTMODE
 70
     1
  9
$TEXTSIZE
 40
0.25
  9
$TRACEWID
 40
0.05
  9
$TEXTSTYLE
  7
STANDARD
  9
$CLAYER
  8
0
  9
$CELTYPE
  6
BYLAYER
  9
$CECOLOR
 62
     3
  9
$DIMSCALE
 40
1.0
  9
$DIMASZ
 40
0.18
  9
$DIMEXO
 40
0.0625
  9
$DIMDLI
 40
0.38
  9
$DIMRND
 40
0.0
  9
$DIMDLE
 40
0.0
  9
$DIMEXE
 40
0.045
  9
$DIMTP
 40
0.001
  9
$DIMTM
 40
-0.001
  9
$DIMTXT
 40
0.25
  9
$DIMCEN
 40
0.09
  9
$DIMTSZ
 40
0.0
  9
$DIMTOL
 70
     0
  9
$DIMLIM
 70
     0
  9
$DIMTIH
 70
     1
  9
$DIMTOH
 70
     1
  9
$DIMSE1
 70
     0
  9
$DIMSE2
 70
     0
  9
$DIMTAD
 70
     0
  9
$DIMZIN
 70
     0
  9
$DIMBLK
  1

  9
$DIMASO
 70
     1
  9
$DIMSHO
 70
     1
  9
$DIMPOST
  1

  9
$DIMAPOST
  1

  9
$DIMALT
 70
     0
  9
$DIMALTD
 70
     2
  9
$DIMALTF
 40
25.4
  9
$DIMLFAC
 40
1.0
  9
$DIMTOFL
 70
     0
  9
$DIMTVP
 40
0.0
  9
$DIMTIX
 70
     0
  9
$DIMSOXD
 70
     0
  9
$DIMSAH
 70
     0
  9
$DIMBLK1
  1

  9
$DIMBLK2
  1

  9
$DIMSTYLE
  2
STANDARD
  9
$DIMCLRD
 70
     0
  9
$DIMCLRE
 70
     0
  9
$DIMCLRT
 70
     0
  9
$DIMTFAC
 40
1.0
  9
$DIMGAP
 40
0.09
  9
$LUNITS
 70
     2
  9
$LUPREC
 70
     8
  9
$SKETCHINC
 40
0.1
  9
$FILLETRAD
 40
0.5
  9
$AUNITS
 70
     0
  9
$AUPREC
 70
     0
  9
$MENU
  1
.
  9
$ELEVATION
 40
0.0
  9
$PELEVATION
 40
0.0
  9
$THICKNESS
 40
0.0
  9
$LIMCHECK
 70
     0
  9
$CHAMFERA
 40
0.0
  9
$CHAMFERB
 40
0.0
  9
$SKPOLY
 70
     0
  9
$TDCREATE
 40
2458130.750046794
  9
$TDUPDATE
 40
2458130.750048414
  9
$TDINDWG
 40
0.0000000116
  9
$TDUSRTIMER
 40
0.0000000116
  9
$USRTIMER
 70
     1
  9
$ANGBASE
 50
0.0
  9
$ANGDIR
 70
     0
  9
$PDMODE
 70
     2
  9
$PDSIZE
 40
0.03
  9
$PLINEWID
 40
0.0
  9
$COORDS
 70
     1
  9
$SPLFRAME
 70
     0
  9
$SPLINETYPE
 70
     6
  9
$SPLINESEGS
 70
     8
  9
$ATTDIA
 70
     0
  9
$ATTREQ
 70
     1
  9
$HANDLING
 70
     1
  9
$HANDSEED
  5
2D2
  9
$SURFTAB1
 70
     6
  9
$SURFTAB2
 70
     6
  9
$SURFTYPE
 70
     6
  9
$SURFU
 70
     6
  9
$SURFV
 70
     6
  9
$UCSNAME
  2

  9
$UCSORG
 10
0.0
 20
0.0
 30
0.0
  9
$UCSXDIR
 10
1.0
 20
0.0
 30
0.0
  9
$UCSYDIR
 10
0.0
 20
1.0
 30
0.0
  9
$PUCSNAME
  2

  9
$PUCSORG
 10
0.0
 20
0.0
 30
0.0
  9
$PUCSXDIR
 10
1.0
 20
0.0
 30
0.0
  9
$PUCSYDIR
 10
0.0
 20
1.0
 30
0.0
  9
$USERI1
 70
     0
  9
$USERI2
 70
     0
  9
$USERI3
 70
     0
  9
$USERI4
 70
     0
  9
$USERI5
 70
     0
  9
$USERR1
 40
0.0
  9
$USERR2
 40
0.0
  9
$USERR3
 40
0.0
  9
$USERR4
 40
0.0
  9
$USERR5
 40
0.0
  9
$WORLDVIEW
 70
     1
  9
$SHADEDGE
 70
     3
  9
$SHADEDIF
 70
    70
  9
$TILEMODE
 70
     1
  9
$MAXACTVP
 70
    64
  9
$PLIMCHECK
 70
     0
  9
$PEXTMIN
 10
1.000000000000000E+20
 20
1.000000000000000E+20
 30
1.000000000000000E+20
  9
$PEXTMAX
 10
-1.000000000000000E+20
 20
-1.000000000000000E+20
 30
-1.000000000000000E+20
  9
$PLIMMIN
 10
-0.25
 20
-0.25
  9
$PLIMMAX
 10
10.75
 20
8.25
  9
$UNITMODE
 70
     0
  9
$VISRETAIN
 70
     1
  9
$PLINEGEN
 70
     0
  9
$PSLTSCALE
 70
     1
  0
ENDSEC
  0
SECTION
  2
TABLES
  0
TABLE
  2
VPORT
 70
     1
  0
VPORT
  2
*ACTIVE
 70
     0
 10
0.0
 20
0.0
 11
1.0
 21
1.0
 12
0.0
 22
0.0
 13
0.0
 23
0.0
 14
0.5
 24
0.5
 15
0.5
 25
0.5
 16
0.0
 26
0.0
 36
1.0
 17
-0.6968503937007888
 27
12.79527559055118
 37
0.0
 40
25.59055118110237
 41
2.101846153846153
 42
50.0
 43
0.0
 44
0.0
 50
0.0
 51
0.0
 71
     0
 72
 10000
 73
     1
 74
     3
 75
     0
 76
     0
 77
     0
 78
     0
  0
ENDTAB
  0
TABLE
  2
LTYPE
 70
     4
  0
LTYPE
  2
CONTINUOUS
 70
     0
  3
Solid line
 72
    65
 73
     0
 40
0.0
  0
LTYPE
  2
DASHED
 70
     0
  3
_ _ _ _ _ _ _ _ _ _ _ _ _ _ _ _
 72
    65
 73
     2
 40
0.2
 49
0.1
 49
-0.1
  0
LTYPE
  2
CENTER
 70
     0
  3
___ _ ___ _ ___ _ ___ _ ___ _ ___ _ ___ _ ___ _
 72
    65
 73
     4
 40
0.95
 49
0.625
 49
-0.125
 49
0.075
 49
-0.125
  0
LTYPE
  2
PHANTOM
 70
     0
  3
______  __  __  ______  __  __  ______  __  __  
 72
    65
 73
     6
 40
1.025
 49
0.625
 49
-0.125
 49
0.075
 49
-0.125
 49
0.075
 49
-0.125
  0
ENDTAB
  0
TABLE
  2
LAYER
 70
    12
  0
LAYER
  2
0
 70
     0
 62
     7
  6
CONTINUOUS
  0
LAYER
  2
UNNAMED__1_
 70
     0
 62
     7
  6
CONTINUOUS
  0
LAYER
  2
RIGHT_SIDE__1_4_
 70
     0
 62
     7
  6
CONTINUOUS
  0
LAYER
  2
OUTLINE__1_4_2_
 70
     0
 62
     7
  6
CONTINUOUS
  0
LAYER
  2
FRONT__1_5_
 70
     0
 62
     7
  6
CONTINUOUS
  0
LAYER
  2
OUTLINE__1_5_2_
 70
     0
 62
     7
  6
CONTINUOUS
  0
LAYER
  2
BACK__1_6_
 70
     0
 62
     7
  6
CONTINUOUS
  0
LAYER
  2
OUTLINE__1_6_2_
 70
     0
 62
     7
  6
CONTINUOUS
  0
LAYER
  2
TOP__1_2_
 70
     0
 62
     7
  6
CONTINUOUS
  0
LAYER
  2
OUTLINE__1_2_2_
 70
     0
 62
     7
  6
CONTINUOUS
  0
LAYER
  2
DOOR__1_7_
 70
     0
 62
     7
  6
CONTINUOUS
  0
LAYER
  2
OUTLINE__1_7_2_
 70
     0
 62
     7
  6
CONTINUOUS
  0
ENDTAB
  0
TABLE
  2
STYLE
 70
     1
  0
STYLE
  2
STANDARD
 70
     0
 40
0.0
 41
1.0
 50
0.0
 71
     0
 42
0.25
  3
txt
  4

  0
ENDTAB
  0
TABLE
  2
VIEW
 70
     0
  0
ENDTAB
  0
TABLE
  2
UCS
 70
     0
  0
ENDTAB
  0
TABLE
  2
APPID
 70
     1
  0
APPID
  2
ACAD
 70
     0
  0
ENDTAB
  0
TABLE
  2
DIMSTYLE
 70
     1
  0
DIMSTYLE
  2
STANDARD
 70
     0
  3

  4

  5

  6

  7

 40
1.0
 41
0.18
 42
0.0625
 43
0.38
 44
0.18
 45
0.0
 46
0.0
 47
0.0
 48
0.0
140
0.18
141
0.09
142
0.0
143
25.4
144
1.0
145
0.0
146
1.0
147
0.09
 71
     0
 72
     0
 73
     1
 74
     1
 75
     0
 76
     0
 77
     0
 78
     0
170
     0
171
     2
172
     0
173
     0
174
     0
175
     0
176
     0
177
     0
178
     0
  0
ENDTAB
  0
ENDSEC
  0
SECTION
  2
BLOCKS
  0
BLOCK
  8
0
  2
$MODEL_SPACE
 70
     0
 10
0.0
 20
0.0
 30
0.0
  3
$MODEL_SPACE
  1

  0
ENDBLK
  5
21
  8
0
  0
BLOCK
 67
     1
  8
0
  2
$PAPER_SPACE
 70
     0
 10
0.0
 20
0.0
 30
0.0
  3
$PAPER_SPACE
  1

  0
ENDBLK
  5
1D
 67
     1
  8
0
  0
ENDSEC
  0
SECTION
  2
ENTITIES
  0
LINE
  5
7C
  8
OUTLINE__1_7_2_
  6
CONTINUOUS
 62
     2
 10
-15.38582677165354
 20
0.0
 30
0.0000000000000948
 11
-25.50393700787401
 21
0.0
 31
0.0000000000000941
210
0.0
220
1.0
230
0.0
  0
LINE
  5
7D
  8
OUTLINE__1_7_2_
  6
CONTINUOUS
 62
     2
 10
-14.99212598425197
 20
11.55511811023622
 30
-0.0000000000034485
 11
-14.99212598425197
 21
0.3937007874015759
 31
-0.0000000000000616
210
0.0
220
1.0
230
0.0
  0
LINE
  5
7E
  8
OUTLINE__1_7_2_
  6
CONTINUOUS
 62
     2
 10
-25.89763779527559
 20
0.3937007874015759
 30
0.0000000000000941
 11
-25.89763779527559
 21
11.55511811023622
 31
-0.0000000000033785
210
0.0
220
1.0
230
0.0
  0
LINE
  5
7F
  8
OUTLINE__1_7_2_
  6
CONTINUOUS
 62
     2
 10
-20.34879802390346
 20
0.9240939373106478
 30
0.0000000164230285
 11
-20.25317301079044
 21
0.9240939373106478
 31
0.0000000164230285
210
0.0
220
1.0
230
0.0
  0
LINE
  5
80
  8
OUTLINE__1_7_2_
  6
CONTINUOUS
 62
     2
 10
-19.69270427747974
 20
0.8365939313501833
 30
0.0000000164230285
 11
-19.69270427747974
 21
0.6740939373106478
 31
0.0000000164230285
210
0.0
220
1.0
230
0.0
  0
LINE
  5
81
  8
OUTLINE__1_7_2_
  6
CONTINUOUS
 62
     2
 10
-25.50393700787401
 20
11.9488188976378
 30
-0.0000000000034491
 11
-15.38582677165354
 21
11.9488188976378
 31
-0.0000000000034485
210
0.0
220
1.0
230
0.0
  0
LINE
  5
82
  8
OUTLINE__1_7_2_
  6
CONTINUOUS
 62
     2
 10
-20.20004801675091
 20
0.8615939373106478
 30
0.0000000164230285
 11
-20.20004801675091
 21
0.7365939373106478
 31
0.0000000164230285
210
0.0
220
1.0
230
0.0
  0
POLYLINE
  5
83
  8
OUTLINE__1_7_2_
  6
CONTINUOUS
 62
     2
 66
     1
 10
0.0
 20
0.0
 30
0.0000000164230285
 70
     1
  0
VERTEX
  5
1E2
  8
OUTLINE__1_7_2_
  6
CONTINUOUS
 62
     2
 10
-20.04465741142044
 20
0.8334689343304156
 30
0.0000000164230285
  0
VERTEX
  5
1E3
  8
OUTLINE__1_7_2_
  6
CONTINUOUS
 62
     2
 10
-20.07918863966474
 20
0.8334689343304156
 30
0.0000000164230285
  0
VERTEX
  5
1E4
  8
OUTLINE__1_7_2_
  6
CONTINUOUS
 62
     2
 10
-20.10707926973114
 20
0.8100314343304156
 30
0.0000000164230285
  0
VERTEX
  5
1E5
  8
OUTLINE__1_7_2_
  6
CONTINUOUS
 62
     2
 10
-20.11770428940067
 20
0.7709689343304156
 30
0.0000000164230285
  0
VERTEX
  5
1E6
  8
OUTLINE__1_7_2_
  6
CONTINUOUS
 62
     2
 10
-20.11770428940067
 20
0.7397189343304156
 30
0.0000000164230285
  0
VERTEX
  5
1E7
  8
OUTLINE__1_7_2_
  6
CONTINUOUS
 62
     2
 10
-20.10707926973114
 20
0.7006564343304156
 30
0.0000000164230285
  0
VERTEX
  5
1E8
  8
OUTLINE__1_7_2_
  6
CONTINUOUS
 62
     2
 10
-20.07918863966474
 20
0.6772189343304156
 30
0.0000000164230285
  0
VERTEX
  5
1E9
  8
OUTLINE__1_7_2_
  6
CONTINUOUS
 62
     2
 10
-20.04465741142044
 20
0.6772189343304156
 30
0.0000000164230285
  0
VERTEX
  5
1EA
  8
OUTLINE__1_7_2_
  6
CONTINUOUS
 62
     2
 10
-20.01676678135404
 20
0.7006564343304156
 30
0.0000000164230285
  0
VERTEX
  5
1EB
  8
OUTLINE__1_7_2_
  6
CONTINUOUS
 62
     2
 10
-20.0061417654098
 20
0.7397189343304156
 30
0.0000000164230285
  0
VERTEX
  5
1EC
  8
OUTLINE__1_7_2_
  6
CONTINUOUS
 62
     2
 10
-20.0061417654098
 20
0.7709689343304156
 30
0.0000000164230285
  0
VERTEX
  5
1ED
  8
OUTLINE__1_7_2_
  6
CONTINUOUS
 62
     2
 10
-20.01676678135404
 20
0.8100314343304156
 30
0.0000000164230285
  0
SEQEND
  5
2BA
  8
OUTLINE__1_7_2_
  6
CONTINUOUS
 62
     2
  0
POLYLINE
  5
90
  8
OUTLINE__1_7_2_
  6
CONTINUOUS
 62
     2
 66
     1
 10
0.0
 20
0.0
 30
0.0000000164230285
  0
VERTEX
  5
1EE
  8
OUTLINE__1_7_2_
  6
CONTINUOUS
 62
     2
 10
-19.69270427747974
 20
0.7709689343304156
 30
0.0000000164230285
  0
VERTEX
  5
1EF
  8
OUTLINE__1_7_2_
  6
CONTINUOUS
 62
     2
 10
-19.68473549410114
 20
0.8053439313501833
 30
0.0000000164230285
  0
VERTEX
  5
1F0
  8
OUTLINE__1_7_2_
  6
CONTINUOUS
 62
     2
 10
-19.66348551436672
 20
0.8287814313501833
 30
0.0000000164230285
  0
VERTEX
  5
1F1
  8
OUTLINE__1_7_2_
  6
CONTINUOUS
 62
     2
 10
-19.63426678105602
 20
0.8365939313501833
 30
0.0000000164230285
  0
VERTEX
  5
1F2
  8
OUTLINE__1_7_2_
  6
CONTINUOUS
 62
     2
 10
-19.60637615844021
 20
0.8256564343304156
 30
0.0000000164230285
  0
VERTEX
  5
1F3
  8
OUTLINE__1_7_2_
  6
CONTINUOUS
 62
     2
 10
-19.58645428940067
 20
0.7990939373106478
 30
0.0000000164230285
  0
SEQEND
  5
2BB
  8
OUTLINE__1_7_2_
  6
CONTINUOUS
 62
     2
  0
POLYLINE
  5
97
  8
OUTLINE__1_7_2_
  6
CONTINUOUS
 62
     2
 66
     1
 10
0.0
 20
0.0
 30
-0.0000000164230285
210
0.0
220
0.0
230
-1.0
  0
VERTEX
  5
1F4
  8
OUTLINE__1_7_2_
  6
CONTINUOUS
 62
     2
 10
20.20004801675091
 20
0.7365939373106478
 30
-0.0000000164230285
  0
VERTEX
  5
1F5
  8
OUTLINE__1_7_2_
  6
CONTINUOUS
 62
     2
 10
20.20270428284416
 20
0.7178439402908801
 30
-0.0000000164230285
  0
VERTEX
  5
1F6
  8
OUTLINE__1_7_2_
  6
CONTINUOUS
 62
     2
 10
20.20934491082439
 20
0.6990939432711123
 30
-0.0000000164230285
  0
VERTEX
  5
1F7
  8
OUTLINE__1_7_2_
  6
CONTINUOUS
 62
     2
 10
20.22129802628765
 20
0.6850314343304156
 30
-0.0000000164230285
  0
VERTEX
  5
1F8
  8
OUTLINE__1_7_2_
  6
CONTINUOUS
 62
     2
 10
20.23723553344021
 20
0.6772189343304156
 30
-0.0000000164230285
  0
VERTEX
  5
1F9
  8
OUTLINE__1_7_2_
  6
CONTINUOUS
 62
     2
 10
20.25317301079044
 20
0.6740939373106478
 30
-0.0000000164230285
  0
SEQEND
  5
2BC
  8
OUTLINE__1_7_2_
  6
CONTINUOUS
 62
     2
  0
POLYLINE
  5
9E
  8
OUTLINE__1_7_2_
  6
CONTINUOUS
 62
     2
 66
     1
 10
0.0
 20
0.0
 30
-0.0000000164230285
 70
     1
210
0.0
220
0.0
230
-1.0
  0
VERTEX
  5
1FA
  8
OUTLINE__1_7_2_
  6
CONTINUOUS
 62
     2
 10
19.83215741291055
 20
0.8334689343304156
 30
-0.0000000164230285
  0
VERTEX
  5
1FB
  8
OUTLINE__1_7_2_
  6
CONTINUOUS
 62
     2
 10
19.86668864115486
 20
0.8334689343304156
 30
-0.0000000164230285
  0
VERTEX
  5
1FC
  8
OUTLINE__1_7_2_
  6
CONTINUOUS
 62
     2
 10
19.89457929729829
 20
0.8100314343304156
 30
-0.0000000164230285
  0
VERTEX
  5
1FD
  8
OUTLINE__1_7_2_
  6
CONTINUOUS
 62
     2
 10
19.9052042871655
 20
0.7709689343304156
 30
-0.0000000164230285
  0
VERTEX
  5
1FE
  8
OUTLINE__1_7_2_
  6
CONTINUOUS
 62
     2
 10
19.9052042871655
 20
0.7397189343304156
 30
-0.0000000164230285
  0
VERTEX
  5
1FF
  8
OUTLINE__1_7_2_
  6
CONTINUOUS
 62
     2
 10
19.89457929729829
 20
0.7006564343304156
 30
-0.0000000164230285
  0
VERTEX
  5
200
  8
OUTLINE__1_7_2_
  6
CONTINUOUS
 62
     2
 10
19.86668864115486
 20
0.6772189343304156
 30
-0.0000000164230285
  0
VERTEX
  5
201
  8
OUTLINE__1_7_2_
  6
CONTINUOUS
 62
     2
 10
19.83215741291055
 20
0.6772189343304156
 30
-0.0000000164230285
  0
VERTEX
  5
202
  8
OUTLINE__1_7_2_
  6
CONTINUOUS
 62
     2
 10
19.80426675304184
 20
0.7006564343304156
 30
-0.0000000164230285
  0
VERTEX
  5
203
  8
OUTLINE__1_7_2_
  6
CONTINUOUS
 62
     2
 10
19.79364176317463
 20
0.7397189343304156
 30
-0.0000000164230285
  0
VERTEX
  5
204
  8
OUTLINE__1_7_2_
  6
CONTINUOUS
 62
     2
 10
19.79364176317463
 20
0.7709689343304156
 30
-0.0000000164230285
  0
VERTEX
  5
205
  8
OUTLINE__1_7_2_
  6
CONTINUOUS
 62
     2
 10
19.80426675304184
 20
0.8100314343304156
 30
-0.0000000164230285
  0
SEQEND
  5
2BD
  8
OUTLINE__1_7_2_
  6
CONTINUOUS
 62
     2
  0
POLYLINE
  5
AB
  8
OUTLINE__1_7_2_
  6
CONTINUOUS
 62
     2
 66
     1
 10
0.0
 20
0.0
 30
-0.0000000164230285
210
0.0
220
0.0
230
-1.0
  0
VERTEX
  5
206
  8
OUTLINE__1_7_2_
  6
CONTINUOUS
 62
     2
 10
20.20004801675091
 20
0.8615939373106478
 30
-0.0000000164230285
  0
VERTEX
  5
207
  8
OUTLINE__1_7_2_
  6
CONTINUOUS
 62
     2
 10
20.20270428284416
 20
0.8803439343304156
 30
-0.0000000164230285
  0
VERTEX
  5
208
  8
OUTLINE__1_7_2_
  6
CONTINUOUS
 62
     2
 10
20.20934491082439
 20
0.8990939313501833
 30
-0.0000000164230285
  0
VERTEX
  5
209
  8
OUTLINE__1_7_2_
  6
CONTINUOUS
 62
     2
 10
20.22129802628765
 20
0.9131564402908801
 30
-0.0000000164230285
  0
VERTEX
  5
20A
  8
OUTLINE__1_7_2_
  6
CONTINUOUS
 62
     2
 10
20.23723553344021
 20
0.9209689402908801
 30
-0.0000000164230285
  0
VERTEX
  5
20B
  8
OUTLINE__1_7_2_
  6
CONTINUOUS
 62
     2
 10
20.25317301079044
 20
0.9240939373106478
 30
-0.0000000164230285
  0
SEQEND
  5
2BE
  8
OUTLINE__1_7_2_
  6
CONTINUOUS
 62
     2
  0
POLYLINE
  5
B2
  8
OUTLINE__1_7_2_
  6
CONTINUOUS
 62
     2
 66
     1
 10
0.0
 20
0.0
 30
0.0000000164230285
  0
VERTEX
  5
20C
  8
OUTLINE__1_7_2_
  6
CONTINUOUS
 62
     2
 10
-20.25317301079044
 20
0.6740939373106478
 30
0.0000000164230285
  0
VERTEX
  5
20D
  8
OUTLINE__1_7_2_
  6
CONTINUOUS
 62
     2
 10
-20.34879802390346
 20
0.6740939373106478
 30
0.0000000164230285
  0
VERTEX
  5
20E
  8
OUTLINE__1_7_2_
  6
CONTINUOUS
 62
     2
 10
-20.34879802390346
 20
0.9240939373106478
 30
0.0000000164230285
  0
SEQEND
  5
2BF
  8
OUTLINE__1_7_2_
  6
CONTINUOUS
 62
     2
  0
ARC
  5
B6
  8
OUTLINE__1_7_2_
  6
CONTINUOUS
 62
     2
 10
-15.38582677165354
 20
0.3937007874015753
 30
0.0000000000000948
 40
0.3937007874015748
 50
270.0
 51
0.0
  0
ARC
  5
B7
  8
OUTLINE__1_7_2_
  6
CONTINUOUS
 62
     2
 10
-25.50393700787401
 20
0.3937007874015753
 30
0.0000000000000941
 40
0.3937007874015748
 50
180.0
 51
270.0
  0
ARC
  5
B8
  8
OUTLINE__1_7_2_
  6
CONTINUOUS
 62
     2
 10
-25.50393700787401
 20
11.55511811023622
 30
-0.0000000000034491
 40
0.3937007874015748
 50
90.0
 51
180.0
  0
ARC
  5
B9
  8
OUTLINE__1_7_2_
  6
CONTINUOUS
 62
     2
 10
-15.38582677165354
 20
11.55511811023622
 30
-0.0000000000034485
 40
0.3937007874015748
 50
0.0
 51
90.0
  0
CIRCLE
  5
BA
  8
OUTLINE__1_7_2_
  6
CONTINUOUS
 62
     2
 10
-25.4251968503937
 20
10.47244094488189
 30
-0.0000000000030554
 40
0.1082677165354331
  0
CIRCLE
  5
BB
  8
OUTLINE__1_7_2_
  6
CONTINUOUS
 62
     2
 10
-25.4251968503937
 20
9.488188976377952
 30
-0.0000000000026616
 40
0.1082677165354331
  0
CIRCLE
  5
BC
  8
OUTLINE__1_7_2_
  6
CONTINUOUS
 62
     2
 10
-25.4251968503937
 20
2.263779527559055
 30
-0.0000000000006932
 40
0.1082677165354331
  0
CIRCLE
  5
BD
  8
OUTLINE__1_7_2_
  6
CONTINUOUS
 62
     2
 10
-15.50393700787401
 20
5.344488188976377
 30
-0.0000000000014799
 40
0.1082677165354331
  0
CIRCLE
  5
BE
  8
OUTLINE__1_7_2_
  6
CONTINUOUS
 62
     2
 10
-25.4251968503937
 20
3.248031496062992
 30
-0.0000000000006932
 40
0.1082677165354331
  0
CIRCLE
  5
BF
  8
OUTLINE__1_7_2_
  6
CONTINUOUS
 62
     2
 10
-15.50393700787401
 20
6.604330708661418
 30
-0.0000000000018736
 40
0.1082677165354331
  0
LINE
  5
C0
  8
OUTLINE__1_2_2_
  6
CONTINUOUS
 62
     2
 10
-14.99212598425197
 20
13.38582677165342
 30
-0.0000000000075211
 11
-27.59055118110236
 21
13.38582677165342
 31
-0.0000000000075211
  0
LINE
  5
C1
  8
OUTLINE__1_2_2_
  6
CONTINUOUS
 62
     2
 10
-27.59055118110236
 20
13.38582677165342
 30
-0.0000000000075211
 11
-27.59055118110236
 21
25.59055118110224
 31
-0.0000000000075211
  0
LINE
  5
C2
  8
OUTLINE__1_2_2_
  6
CONTINUOUS
 62
     2
 10
-27.59055118110236
 20
25.59055118110224
 30
-0.0000000000075211
 11
-14.99212598425197
 21
25.59055118110224
 31
-0.0000000000075211
  0
LINE
  5
C3
  8
OUTLINE__1_2_2_
  6
CONTINUOUS
 62
     2
 10
-21.35391483227099
 20
14.62109316803327
 30
0.0000001952328894
 11
-21.35391483227099
 21
14.37109316803327
 31
0.0000001952328894
  0
LINE
  5
C4
  8
OUTLINE__1_2_2_
  6
CONTINUOUS
 62
     2
 10
-20.98469608048285
 20
14.5335931620728
 30
0.0000001952328894
 11
-20.98469608048285
 21
14.27109317399373
 31
0.0000001952328894
  0
LINE
  5
C5
  8
OUTLINE__1_2_2_
  6
CONTINUOUS
 62
     2
 10
-21.42828983584727
 20
14.62109316803327
 30
0.0000001952328894
 11
-21.27953981379355
 21
14.62109316803327
 31
0.0000001952328894
  0
LINE
  5
C6
  8
OUTLINE__1_2_2_
  6
CONTINUOUS
 62
     2
 10
-14.99212598425196
 20
25.59055118110224
 30
-0.0000000000075211
 11
-14.99212598425197
 21
13.38582677165342
 31
-0.0000000000075211
  0
POLYLINE
  5
C7
  8
OUTLINE__1_2_2_
  6
CONTINUOUS
 62
     2
 66
     1
 10
0.0
 20
0.0
 30
0.0000001952328894
 70
     1
  0
VERTEX
  5
20F
  8
OUTLINE__1_2_2_
  6
CONTINUOUS
 62
     2
 10
-21.12414921218837
 20
14.53046816505304
 30
0.0000001952328894
  0
VERTEX
  5
210
  8
OUTLINE__1_2_2_
  6
CONTINUOUS
 62
     2
 10
-21.15868044043268
 20
14.53046816505304
 30
0.0000001952328894
  0
VERTEX
  5
211
  8
OUTLINE__1_2_2_
  6
CONTINUOUS
 62
     2
 10
-21.18657107049907
 20
14.50703066505304
 30
0.0000001952328894
  0
VERTEX
  5
212
  8
OUTLINE__1_2_2_
  6
CONTINUOUS
 62
     2
 10
-21.19719608644331
 20
14.46796816505304
 30
0.0000001952328894
  0
VERTEX
  5
213
  8
OUTLINE__1_2_2_
  6
CONTINUOUS
 62
     2
 10
-21.19719608644331
 20
14.43671816505304
 30
0.0000001952328894
  0
VERTEX
  5
214
  8
OUTLINE__1_2_2_
  6
CONTINUOUS
 62
     2
 10
-21.18657107049907
 20
14.39765566505304
 30
0.0000001952328894
  0
VERTEX
  5
215
  8
OUTLINE__1_2_2_
  6
CONTINUOUS
 62
     2
 10
-21.15868044043268
 20
14.37421816505304
 30
0.0000001952328894
  0
VERTEX
  5
216
  8
OUTLINE__1_2_2_
  6
CONTINUOUS
 62
     2
 10
-21.12414921218837
 20
14.37421816505304
 30
0.0000001952328894
  0
VERTEX
  5
217
  8
OUTLINE__1_2_2_
  6
CONTINUOUS
 62
     2
 10
-21.09625858212198
 20
14.39765566505304
 30
0.0000001952328894
  0
VERTEX
  5
218
  8
OUTLINE__1_2_2_
  6
CONTINUOUS
 62
     2
 10
-21.08563356617773
 20
14.43671816505304
 30
0.0000001952328894
  0
VERTEX
  5
219
  8
OUTLINE__1_2_2_
  6
CONTINUOUS
 62
     2
 10
-21.08563356617773
 20
14.46796816505304
 30
0.0000001952328894
  0
VERTEX
  5
21A
  8
OUTLINE__1_2_2_
  6
CONTINUOUS
 62
     2
 10
-21.09625858212198
 20
14.50703066505304
 30
0.0000001952328894
  0
SEQEND
  5
2C0
  8
OUTLINE__1_2_2_
  6
CONTINUOUS
 62
     2
  0
POLYLINE
  5
D4
  8
OUTLINE__1_2_2_
  6
CONTINUOUS
 62
     2
 66
     1
 10
0.0
 20
0.0
 30
-0.0000001952328894
210
0.0
220
0.0
230
-1.0
  0
VERTEX
  5
21B
  8
OUTLINE__1_2_2_
  6
CONTINUOUS
 62
     2
 10
20.98469608048285
 20
14.43671816505304
 30
-0.0000001952328894
  0
VERTEX
  5
21C
  8
OUTLINE__1_2_2_
  6
CONTINUOUS
 62
     2
 10
20.97407109061564
 20
14.39765566505304
 30
-0.0000001952328894
  0
VERTEX
  5
21D
  8
OUTLINE__1_2_2_
  6
CONTINUOUS
 62
     2
 10
20.9461804381975
 20
14.37421816505304
 30
-0.0000001952328894
  0
VERTEX
  5
21E
  8
OUTLINE__1_2_2_
  6
CONTINUOUS
 62
     2
 10
20.91164921740378
 20
14.37421816505304
 30
-0.0000001952328894
  0
VERTEX
  5
21F
  8
OUTLINE__1_2_2_
  6
CONTINUOUS
 62
     2
 10
20.88375855008448
 20
14.39765566505304
 30
-0.0000001952328894
  0
VERTEX
  5
220
  8
OUTLINE__1_2_2_
  6
CONTINUOUS
 62
     2
 10
20.87313357511843
 20
14.43671816505304
 30
-0.0000001952328894
  0
VERTEX
  5
221
  8
OUTLINE__1_2_2_
  6
CONTINUOUS
 62
     2
 10
20.87313357511843
 20
14.46796816505304
 30
-0.0000001952328894
  0
VERTEX
  5
222
  8
OUTLINE__1_2_2_
  6
CONTINUOUS
 62
     2
 10
20.88375855008448
 20
14.50703066505304
 30
-0.0000001952328894
  0
VERTEX
  5
223
  8
OUTLINE__1_2_2_
  6
CONTINUOUS
 62
     2
 10
20.91164921740378
 20
14.53046816505304
 30
-0.0000001952328894
  0
VERTEX
  5
224
  8
OUTLINE__1_2_2_
  6
CONTINUOUS
 62
     2
 10
20.9461804381975
 20
14.53046816505304
 30
-0.0000001952328894
  0
VERTEX
  5
225
  8
OUTLINE__1_2_2_
  6
CONTINUOUS
 62
     2
 10
20.97407109061564
 20
14.50703066505304
 30
-0.0000001952328894
  0
VERTEX
  5
226
  8
OUTLINE__1_2_2_
  6
CONTINUOUS
 62
     2
 10
20.98469608048285
 20
14.46796816505304
 30
-0.0000001952328894
  0
SEQEND
  5
2C1
  8
OUTLINE__1_2_2_
  6
CONTINUOUS
 62
     2
  0
CIRCLE
  5
E1
  8
OUTLINE__1_2_2_
  6
CONTINUOUS
 62
     2
 10
-15.38582677165354
 20
14.76377952755893
 30
-0.0000000000075219
 40
0.0688976377952756
  0
CIRCLE
  5
E2
  8
OUTLINE__1_2_2_
  6
CONTINUOUS
 62
     2
 10
-27.19685039370079
 20
24.21259842519673
 30
-0.0000000000075219
 40
0.0688976377952756
  0
CIRCLE
  5
E3
  8
OUTLINE__1_2_2_
  6
CONTINUOUS
 62
     2
 10
-27.19685039370079
 20
14.76377952755893
 30
-0.0000000000075219
 40
0.0688976377952756
  0
CIRCLE
  5
E4
  8
OUTLINE__1_2_2_
  6
CONTINUOUS
 62
     2
 10
-15.38582677165354
 20
24.21259842519673
 30
-0.0000000000075219
 40
0.0688976377952756
  0
LINE
  5
E5
  8
OUTLINE__1_6_2_
  6
CONTINUOUS
 62
     2
 10
13.32283464566929
 20
25.59055118110236
 30
0.0
 11
26.07874015748031
 21
25.59055118110236
 31
0.0
210
0.0
220
1.0
230
0.0
  0
LINE
  5
E6
  8
OUTLINE__1_6_2_
  6
CONTINUOUS
 62
     2
 10
13.20472440944882
 20
-0.0000000000000021
 30
0.0
 11
13.20472440944882
 21
25.47244094488189
 31
0.0
210
0.0
220
1.0
230
0.0
  0
LINE
  5
E7
  8
OUTLINE__1_6_2_
  6
CONTINUOUS
 62
     2
 10
26.19685039370079
 20
25.47244094488189
 30
0.0
 11
26.19685039370079
 21
-0.0000000000000007
 31
0.0
210
0.0
220
1.0
230
0.0
  0
LINE
  5
E8
  8
OUTLINE__1_6_2_
  6
CONTINUOUS
 62
     2
 10
26.19685039370079
 20
-0.0000000000000021
 30
0.0
 11
13.20472440944882
 21
-0.0000000000000021
 31
0.0
210
0.0
220
1.0
230
0.0
  0
LINE
  5
E9
  8
OUTLINE__1_6_2_
  6
CONTINUOUS
 62
     2
 10
13.32283464566929
 20
25.59055118110236
 30
0.0
 11
13.20472440944863
 21
25.47244094488208
 31
0.0
210
0.0
220
1.0
230
0.0
  0
LINE
  5
EA
  8
OUTLINE__1_6_2_
  6
CONTINUOUS
 62
     2
 10
20.2033958427432
 20
1.00571491868477
 30
0.0000000901109587
 11
20.2033958427432
 21
1.168214912724305
 31
0.0000000901109587
210
0.0
220
1.0
230
0.0
  0
LINE
  5
EB
  8
OUTLINE__1_6_2_
  6
CONTINUOUS
 62
     2
 10
26.19685039370079
 20
25.47244094488189
 30
0.0
 11
26.07874015748032
 21
25.59055118110236
 31
0.0
210
0.0
220
1.0
230
0.0
  0
LINE
  5
EC
  8
OUTLINE__1_6_2_
  6
CONTINUOUS
 62
     2
 10
19.9457395888689
 20
1.14633991868477
 30
0.0000000901109587
 11
19.85675521863727
 21
1.14633991868477
 31
0.0000000901109587
210
0.0
220
1.0
230
0.0
  0
LINE
  5
ED
  8
OUTLINE__1_6_2_
  6
CONTINUOUS
 62
     2
 10
20.55136459244518
 20
1.09165241868477
 30
0.0000000901109587
 11
20.62441148532657
 21
1.00571491868477
 31
0.0000000901109587
210
0.0
220
1.0
230
0.0
  0
LINE
  5
EE
  8
OUTLINE__1_6_2_
  6
CONTINUOUS
 62
     2
 10
20.51284896506099
 20
1.25571491868477
 30
0.0000000901109587
 11
20.51284896506099
 21
1.00571491868477
 31
0.0000000901109587
210
0.0
220
1.0
230
0.0
  0
LINE
  5
EF
  8
OUTLINE__1_6_2_
  6
CONTINUOUS
 62
     2
 10
20.62441148532657
 20
1.168214912724305
 30
0.0000000901109587
 11
20.51284896506099
 21
1.049464921665002
 31
0.0000000901109587
210
0.0
220
1.0
230
0.0
  0
POLYLINE
  5
F0
  8
OUTLINE__1_6_2_
  6
CONTINUOUS
 62
     2
 66
     1
 10
0.0
 20
0.0
 30
0.0000000901109587
  0
VERTEX
  5
227
  8
OUTLINE__1_6_2_
  6
CONTINUOUS
 62
     2
 10
20.2033958427432
 20
1.101027424645234
 30
0.0000000901109587
  0
VERTEX
  5
228
  8
OUTLINE__1_6_2_
  6
CONTINUOUS
 62
     2
 10
20.19277085287599
 20
1.140089924645234
 30
0.0000000901109587
  0
VERTEX
  5
229
  8
OUTLINE__1_6_2_
  6
CONTINUOUS
 62
     2
 10
20.16355208976297
 20
1.165089915704537
 30
0.0000000901109587
  0
VERTEX
  5
22A
  8
OUTLINE__1_6_2_
  6
CONTINUOUS
 62
     2
 10
20.1276927061203
 20
1.165089915704537
 30
0.0000000901109587
  0
VERTEX
  5
22B
  8
OUTLINE__1_6_2_
  6
CONTINUOUS
 62
     2
 10
20.0984739728096
 20
1.140089924645234
 30
0.0000000901109587
  0
VERTEX
  5
22C
  8
OUTLINE__1_6_2_
  6
CONTINUOUS
 62
     2
 10
20.08784895314006
 20
1.101027424645234
 30
0.0000000901109587
  0
VERTEX
  5
22D
  8
OUTLINE__1_6_2_
  6
CONTINUOUS
 62
     2
 10
20.08784895314006
 20
1.074464912724305
 30
0.0000000901109587
  0
VERTEX
  5
22E
  8
OUTLINE__1_6_2_
  6
CONTINUOUS
 62
     2
 10
20.0984739728096
 20
1.033839921665002
 30
0.0000000901109587
  0
VERTEX
  5
22F
  8
OUTLINE__1_6_2_
  6
CONTINUOUS
 62
     2
 10
20.1276927061203
 20
1.008839915704537
 30
0.0000000901109587
  0
VERTEX
  5
230
  8
OUTLINE__1_6_2_
  6
CONTINUOUS
 62
     2
 10
20.16355208976297
 20
1.008839915704537
 30
0.0000000901109587
  0
VERTEX
  5
231
  8
OUTLINE__1_6_2_
  6
CONTINUOUS
 62
     2
 10
20.19277085287599
 20
1.033839921665002
 30
0.0000000901109587
  0
VERTEX
  5
232
  8
OUTLINE__1_6_2_
  6
CONTINUOUS
 62
     2
 10
20.2033958427432
 20
1.074464912724305
 30
0.0000000901109587
  0
SEQEND
  5
2C2
  8
OUTLINE__1_6_2_
  6
CONTINUOUS
 62
     2
  0
POLYLINE
  5
FD
  8
OUTLINE__1_6_2_
  6
CONTINUOUS
 62
     2
 66
     1
 10
0.0
 20
0.0
 30
0.0000000901109587
  0
VERTEX
  5
233
  8
OUTLINE__1_6_2_
  6
CONTINUOUS
 62
     2
 10
20.40394269598751
 20
1.132277424645234
 30
0.0000000901109587
  0
VERTEX
  5
234
  8
OUTLINE__1_6_2_
  6
CONTINUOUS
 62
     2
 10
20.39597397221355
 20
1.149464915704537
 30
0.0000000901109587
  0
VERTEX
  5
235
  8
OUTLINE__1_6_2_
  6
CONTINUOUS
 62
     2
 10
20.36675520910053
 20
1.166652421665002
 30
0.0000000901109587
  0
VERTEX
  5
236
  8
OUTLINE__1_6_2_
  6
CONTINUOUS
 62
     2
 10
20.3348802394989
 20
1.163527424645234
 30
0.0000000901109587
  0
VERTEX
  5
237
  8
OUTLINE__1_6_2_
  6
CONTINUOUS
 62
     2
 10
20.30964584199814
 20
1.13852741868477
 30
0.0000000901109587
  0
VERTEX
  5
238
  8
OUTLINE__1_6_2_
  6
CONTINUOUS
 62
     2
 10
20.30034895537524
 20
1.102589915704537
 30
0.0000000901109587
  0
VERTEX
  5
239
  8
OUTLINE__1_6_2_
  6
CONTINUOUS
 62
     2
 10
20.30034895537524
 20
1.071339915704537
 30
0.0000000901109587
  0
VERTEX
  5
23A
  8
OUTLINE__1_6_2_
  6
CONTINUOUS
 62
     2
 10
20.30964584199814
 20
1.035402412724305
 30
0.0000000901109587
  0
VERTEX
  5
23B
  8
OUTLINE__1_6_2_
  6
CONTINUOUS
 62
     2
 10
20.33222397340564
 20
1.011964912724305
 30
0.0000000901109587
  0
VERTEX
  5
23C
  8
OUTLINE__1_6_2_
  6
CONTINUOUS
 62
     2
 10
20.36409894300727
 20
1.00571491868477
 30
0.0000000901109587
  0
VERTEX
  5
23D
  8
OUTLINE__1_6_2_
  6
CONTINUOUS
 62
     2
 10
20.39198959542541
 20
1.02133991868477
 30
0.0000000901109587
  0
VERTEX
  5
23E
  8
OUTLINE__1_6_2_
  6
CONTINUOUS
 62
     2
 10
20.4012864894989
 20
1.03696491868477
 30
0.0000000901109587
  0
SEQEND
  5
2C3
  8
OUTLINE__1_6_2_
  6
CONTINUOUS
 62
     2
  0
POLYLINE
  5
10A
  8
OUTLINE__1_6_2_
  6
CONTINUOUS
 62
     2
 66
     1
 10
0.0
 20
0.0
 30
0.0000000901109587
 70
     1
  0
VERTEX
  5
23F
  8
OUTLINE__1_6_2_
  6
CONTINUOUS
 62
     2
 10
19.9457395888689
 20
1.25571491868477
 30
0.0000000901109587
  0
VERTEX
  5
240
  8
OUTLINE__1_6_2_
  6
CONTINUOUS
 62
     2
 10
19.96167709602146
 20
1.252589921665002
 30
0.0000000901109587
  0
VERTEX
  5
241
  8
OUTLINE__1_6_2_
  6
CONTINUOUS
 62
     2
 10
19.97495835198192
 20
1.243214915704537
 30
0.0000000901109587
  0
VERTEX
  5
242
  8
OUTLINE__1_6_2_
  6
CONTINUOUS
 62
     2
 10
19.98558335675029
 20
1.227589915704537
 30
0.0000000901109587
  0
VERTEX
  5
243
  8
OUTLINE__1_6_2_
  6
CONTINUOUS
 62
     2
 10
19.99089582933216
 20
1.210402424645234
 30
0.0000000901109587
  0
VERTEX
  5
244
  8
OUTLINE__1_6_2_
  6
CONTINUOUS
 62
     2
 10
19.99089582933216
 20
1.191652412724305
 30
0.0000000901109587
  0
VERTEX
  5
245
  8
OUTLINE__1_6_2_
  6
CONTINUOUS
 62
     2
 10
19.98558335675029
 20
1.174464921665002
 30
0.0000000901109587
  0
VERTEX
  5
246
  8
OUTLINE__1_6_2_
  6
CONTINUOUS
 62
     2
 10
19.97495835198192
 20
1.160402412724305
 30
0.0000000901109587
  0
VERTEX
  5
247
  8
OUTLINE__1_6_2_
  6
CONTINUOUS
 62
     2
 10
19.96167709602146
 20
1.151027421665002
 30
0.0000000901109587
  0
VERTEX
  5
248
  8
OUTLINE__1_6_2_
  6
CONTINUOUS
 62
     2
 10
19.9457395888689
 20
1.14633991868477
 30
0.0000000901109587
  0
VERTEX
  5
249
  8
OUTLINE__1_6_2_
  6
CONTINUOUS
 62
     2
 10
19.96566145790844
 20
1.141652415704537
 30
0.0000000901109587
  0
VERTEX
  5
24A
  8
OUTLINE__1_6_2_
  6
CONTINUOUS
 62
     2
 10
19.98425521625309
 20
1.129152412724305
 30
0.0000000901109587
  0
VERTEX
  5
24B
  8
OUTLINE__1_6_2_
  6
CONTINUOUS
 62
     2
 10
19.99753647221355
 20
1.110402415704537
 30
0.0000000901109587
  0
VERTEX
  5
24C
  8
OUTLINE__1_6_2_
  6
CONTINUOUS
 62
     2
 10
20.00417708529262
 20
1.088527421665002
 30
0.0000000901109587
  0
VERTEX
  5
24D
  8
OUTLINE__1_6_2_
  6
CONTINUOUS
 62
     2
 10
20.00417708529262
 20
1.063527415704537
 30
0.0000000901109587
  0
VERTEX
  5
24E
  8
OUTLINE__1_6_2_
  6
CONTINUOUS
 62
     2
 10
19.99753647221355
 20
1.040089915704537
 30
0.0000000901109587
  0
VERTEX
  5
24F
  8
OUTLINE__1_6_2_
  6
CONTINUOUS
 62
     2
 10
19.98425521625309
 20
1.02133991868477
 30
0.0000000901109587
  0
VERTEX
  5
250
  8
OUTLINE__1_6_2_
  6
CONTINUOUS
 62
     2
 10
19.96566145790844
 20
1.010402421665002
 30
0.0000000901109587
  0
VERTEX
  5
251
  8
OUTLINE__1_6_2_
  6
CONTINUOUS
 62
     2
 10
19.9457395888689
 20
1.00571491868477
 30
0.0000000901109587
  0
VERTEX
  5
252
  8
OUTLINE__1_6_2_
  6
CONTINUOUS
 62
     2
 10
19.85675521863727
 20
1.00571491868477
 30
0.0000000901109587
  0
VERTEX
  5
253
  8
OUTLINE__1_6_2_
  6
CONTINUOUS
 62
     2
 10
19.85675521863727
 20
1.25571491868477
 30
0.0000000901109587
  0
SEQEND
  5
2C4
  8
OUTLINE__1_6_2_
  6
CONTINUOUS
 62
     2
  0
CIRCLE
  5
120
  8
OUTLINE__1_6_2_
  6
CONTINUOUS
 62
     2
 10
24.16535433070866
 20
1.574803149606297
 30
0.0000000000000007
 40
0.2460629921259843
  0
CIRCLE
  5
121
  8
OUTLINE__1_6_2_
  6
CONTINUOUS
 62
     2
 10
13.79527559055118
 20
0.6299212598425176
 30
0.0000000000000007
 40
0.0688976377952756
  0
CIRCLE
  5
122
  8
OUTLINE__1_6_2_
  6
CONTINUOUS
 62
     2
 10
25.60629921259843
 20
0.6299212598425176
 30
0.0000000000000007
 40
0.0688976377952756
  0
CIRCLE
  5
123
  8
OUTLINE__1_6_2_
  6
CONTINUOUS
 62
     2
 10
25.60629921259843
 20
11.59448818897638
 30
0.0000000000000007
 40
0.0688976377952756
  0
CIRCLE
  5
124
  8
OUTLINE__1_6_2_
  6
CONTINUOUS
 62
     2
 10
25.60629921259843
 20
24.76377952755905
 30
0.0000000000000007
 40
0.0688976377952756
  0
CIRCLE
  5
125
  8
OUTLINE__1_6_2_
  6
CONTINUOUS
 62
     2
 10
13.79527559055118
 20
11.59448818897638
 30
0.0000000000000007
 40
0.0688976377952756
  0
CIRCLE
  5
126
  8
OUTLINE__1_6_2_
  6
CONTINUOUS
 62
     2
 10
13.79527559055118
 20
24.76377952755905
 30
0.0000000000000007
 40
0.0688976377952756
  0
LINE
  5
127
  8
OUTLINE__1_5_2_
  6
CONTINUOUS
 62
     2
 10
-2.574803149606299
 20
24.60629921259831
 30
-0.0000000000073848
 11
-12.41732283464567
 21
24.60629921259831
 31
-0.0000000000073854
210
0.0
220
1.0
230
0.0
  0
LINE
  5
128
  8
OUTLINE__1_5_2_
  6
CONTINUOUS
 62
     2
 10
-2.181102362204724
 20
13.44488188976366
 30
-0.0000000000038415
 11
-2.181102362204724
 21
24.21259842519673
 31
-0.0000000000071909
210
0.0
220
1.0
230
0.0
  0
LINE
  5
129
  8
OUTLINE__1_5_2_
  6
CONTINUOUS
 62
     2
 10
-12.81102362204724
 20
24.21259842519673
 30
-0.0000000000073854
 11
-12.81102362204724
 21
13.44488188976366
 31
-0.0000000000040359
210
0.0
220
1.0
230
0.0
  0
LINE
  5
12A
  8
OUTLINE__1_5_2_
  6
CONTINUOUS
 62
     2
 10
-0.9999999999999999
 20
-0.0000000000000006
 30
0.0000000000000956
 11
-13.99212598425197
 21
-0.0000000000000006
 31
0.0000000000000948
210
0.0
220
1.0
230
0.0
  0
LINE
  5
12B
  8
OUTLINE__1_5_2_
  6
CONTINUOUS
 62
     2
 10
-5.001313126522961
 20
7.431102362204606
 30
-0.0000000000022669
 11
-4.702755905511811
 21
7.431102362204606
 31
-0.0000000000022747
210
0.0
220
1.0
230
0.0
  0
LINE
  5
12C
  8
OUTLINE__1_5_2_
  6
CONTINUOUS
 62
     2
 10
-4.702755905511811
 20
7.431102362204606
 30
-0.0000000000022668
 11
-4.702755905511811
 21
7.66732283464555
 31
-0.0000000000023208
210
0.0
220
1.0
230
0.0
  0
LINE
  5
12D
  8
OUTLINE__1_5_2_
  6
CONTINUOUS
 62
     2
 10
-4.702755905511811
 20
7.66732283464555
 30
-0.0000000000022668
 11
-5.004750061748425
 21
7.667322834645542
 31
-0.0000000000022751
210
0.0
220
1.0
230
0.0
  0
LINE
  5
12E
  8
OUTLINE__1_5_2_
  6
CONTINUOUS
 62
     2
 10
-13.99212598425197
 20
-0.0000000000000006
 30
0.0000000000000948
 11
-13.99212598425197
 21
25.47244094488177
 31
-0.0000000000074868
210
0.0
220
1.0
230
0.0
  0
LINE
  5
12F
  8
OUTLINE__1_5_2_
  6
CONTINUOUS
 62
     2
 10
-13.8740157480315
 20
25.59055118110224
 30
-0.0000000000075824
 11
-13.99212598425196
 21
25.47244094488176
 31
-0.000000000007531
210
0.0
220
1.0
230
0.0
  0
LINE
  5
130
  8
OUTLINE__1_5_2_
  6
CONTINUOUS
 62
     2
 10
-13.8740157480315
 20
25.59055118110224
 30
-0.0000000000075824
 11
-1.118110236220471
 21
25.59055118110224
 31
-0.0000000000075816
210
0.0
220
1.0
230
0.0
  0
LINE
  5
131
  8
OUTLINE__1_5_2_
  6
CONTINUOUS
 62
     2
 10
-12.41732283464567
 20
13.05118110236209
 30
-0.0000000000038421
 11
-2.574803149606299
 21
13.05118110236209
 31
-0.0000000000038415
210
0.0
220
1.0
230
0.0
  0
LINE
  5
132
  8
OUTLINE__1_5_2_
  6
CONTINUOUS
 62
     2
 10
-5.844488188976378
 20
7.431102362204606
 30
-0.0000000000022669
 11
-5.545930967964567
 21
7.431102362204602
 31
-0.000000000002259
210
0.0
220
1.0
230
0.0
  0
LINE
  5
133
  8
OUTLINE__1_5_2_
  6
CONTINUOUS
 62
     2
 10
-5.844488188976378
 20
7.667322834645538
 30
-0.0000000000022669
 11
-5.844488188976378
 21
7.431102362204606
 31
-0.0000000000022128
210
0.0
220
1.0
230
0.0
  0
LINE
  5
134
  8
OUTLINE__1_5_2_
  6
CONTINUOUS
 62
     2
 10
-5.542494032739685
 20
7.66732283464555
 30
-0.0000000000022669
 11
-5.844488188976378
 21
7.667322834645538
 31
-0.0000000000022585
210
0.0
220
1.0
230
0.0
  0
LINE
  5
135
  8
OUTLINE__1_5_2_
  6
CONTINUOUS
 62
     2
 10
-0.9999999999999999
 20
25.47244094488177
 30
-0.0000000000075815
 11
-1.118110236220663
 21
25.59055118110205
 31
-0.0000000000076009
210
0.0
220
1.0
230
0.0
  0
LINE
  5
136
  8
OUTLINE__1_5_2_
  6
CONTINUOUS
 62
     2
 10
-7.241848869586554
 20
1.064505006384543
 30
-0.000000008924615
 11
-7.11434887197074
 21
1.064505006384543
 31
-0.000000008924615
210
0.0
220
1.0
230
0.0
  0
LINE
  5
137
  8
OUTLINE__1_5_2_
  6
CONTINUOUS
 62
     2
 10
-0.9999999999999999
 20
25.47244094488177
 30
-0.0000000000075815
 11
-0.9999999999999999
 21
0.0
 31
0.0
210
0.0
220
1.0
230
0.0
  0
LINE
  5
138
  8
OUTLINE__1_5_2_
  6
CONTINUOUS
 62
     2
 10
-7.010755135083762
 20
1.086380000424079
 30
-0.000000008924615
 11
-7.010755135083762
 21
0.9238800063845432
 31
-0.000000008924615
210
0.0
220
1.0
230
0.0
  0
LINE
  5
139
  8
OUTLINE__1_5_2_
  6
CONTINUOUS
 62
     2
 10
-6.585755138063994
 20
1.086380000424079
 30
-0.000000008924615
 11
-6.585755138063994
 21
0.9238800063845432
 31
-0.000000008924615
210
0.0
220
1.0
230
0.0
  0
LINE
  5
13A
  8
OUTLINE__1_5_2_
  6
CONTINUOUS
 62
     2
 10
-6.330755127931204
 20
0.9238800063845432
 30
-0.000000008924615
 11
-6.330755127931204
 21
1.173880006384543
 31
-0.000000008924615
210
0.0
220
1.0
230
0.0
  0
LINE
  5
13B
  8
OUTLINE__1_5_2_
  6
CONTINUOUS
 62
     2
 10
-6.373255087400046
 20
1.086380000424079
 30
-0.000000008924615
 11
-6.264348877931204
 21
1.086380000424079
 31
-0.000000008924615
210
0.0
220
1.0
230
0.0
  0
LINE
  5
13C
  8
OUTLINE__1_5_2_
  6
CONTINUOUS
 62
     2
 10
-6.585755138063994
 20
1.020755003404311
 30
-0.000000008924615
 11
-6.575130148196783
 21
1.059817503404311
 31
-0.000000008924615
210
0.0
220
1.0
230
0.0
  0
POLYLINE
  5
13D
  8
OUTLINE__1_5_2_
  6
CONTINUOUS
 62
     2
 66
     1
 10
0.0
 20
0.0
 30
-0.000000008924615
 70
     1
  0
VERTEX
  5
254
  8
OUTLINE__1_5_2_
  6
CONTINUOUS
 62
     2
 10
-6.725208269769516
 20
1.083255003404311
 30
-0.000000008924615
  0
VERTEX
  5
255
  8
OUTLINE__1_5_2_
  6
CONTINUOUS
 62
     2
 10
-6.759739498013821
 20
1.083255003404311
 30
-0.000000008924615
  0
VERTEX
  5
256
  8
OUTLINE__1_5_2_
  6
CONTINUOUS
 62
     2
 10
-6.787630154157248
 20
1.059817503404311
 30
-0.000000008924615
  0
VERTEX
  5
257
  8
OUTLINE__1_5_2_
  6
CONTINUOUS
 62
     2
 10
-6.798255144024458
 20
1.020755003404311
 30
-0.000000008924615
  0
VERTEX
  5
258
  8
OUTLINE__1_5_2_
  6
CONTINUOUS
 62
     2
 10
-6.798255144024458
 20
0.9895050034043109
 30
-0.000000008924615
  0
VERTEX
  5
259
  8
OUTLINE__1_5_2_
  6
CONTINUOUS
 62
     2
 10
-6.787630154157248
 20
0.9504425034043109
 30
-0.000000008924615
  0
VERTEX
  5
25A
  8
OUTLINE__1_5_2_
  6
CONTINUOUS
 62
     2
 10
-6.759739498013821
 20
0.9270050034043109
 30
-0.000000008924615
  0
VERTEX
  5
25B
  8
OUTLINE__1_5_2_
  6
CONTINUOUS
 62
     2
 10
-6.725208269769516
 20
0.9270050034043109
 30
-0.000000008924615
  0
VERTEX
  5
25C
  8
OUTLINE__1_5_2_
  6
CONTINUOUS
 62
     2
 10
-6.697317613626089
 20
0.9504425034043109
 30
-0.000000008924615
  0
VERTEX
  5
25D
  8
OUTLINE__1_5_2_
  6
CONTINUOUS
 62
     2
 10
-6.686692623758879
 20
0.9895050034043109
 30
-0.000000008924615
  0
VERTEX
  5
25E
  8
OUTLINE__1_5_2_
  6
CONTINUOUS
 62
     2
 10
-6.686692623758879
 20
1.020755003404311
 30
-0.000000008924615
  0
VERTEX
  5
25F
  8
OUTLINE__1_5_2_
  6
CONTINUOUS
 62
     2
 10
-6.697317613626089
 20
1.059817503404311
 30
-0.000000008924615
  0
SEQEND
  5
2C5
  8
OUTLINE__1_5_2_
  6
CONTINUOUS
 62
     2
  0
POLYLINE
  5
14A
  8
OUTLINE__1_5_2_
  6
CONTINUOUS
 62
     2
 66
     1
 10
0.0
 20
0.0
 30
-0.000000008924615
  0
VERTEX
  5
260
  8
OUTLINE__1_5_2_
  6
CONTINUOUS
 62
     2
 10
-7.010755135083762
 20
1.020755003404311
 30
-0.000000008924615
  0
VERTEX
  5
261
  8
OUTLINE__1_5_2_
  6
CONTINUOUS
 62
     2
 10
-7.002786381507483
 20
1.055130000424079
 30
-0.000000008924615
  0
VERTEX
  5
262
  8
OUTLINE__1_5_2_
  6
CONTINUOUS
 62
     2
 10
-6.981536386871901
 20
1.078567500424079
 30
-0.000000008924615
  0
VERTEX
  5
263
  8
OUTLINE__1_5_2_
  6
CONTINUOUS
 62
     2
 10
-6.952317623758879
 20
1.086380000424079
 30
-0.000000008924615
  0
VERTEX
  5
264
  8
OUTLINE__1_5_2_
  6
CONTINUOUS
 62
     2
 10
-6.924427016044226
 20
1.075442503404311
 30
-0.000000008924615
  0
VERTEX
  5
265
  8
OUTLINE__1_5_2_
  6
CONTINUOUS
 62
     2
 10
-6.904505147004691
 20
1.048880006384543
 30
-0.000000008924615
  0
SEQEND
  5
2C6
  8
OUTLINE__1_5_2_
  6
CONTINUOUS
 62
     2
  0
POLYLINE
  5
151
  8
OUTLINE__1_5_2_
  6
CONTINUOUS
 62
     2
 66
     1
 10
0.0
 20
0.0
 30
0.000000008924615
210
0.0
220
0.0
230
-1.0
  0
VERTEX
  5
266
  8
OUTLINE__1_5_2_
  6
CONTINUOUS
 62
     2
 10
7.241848869586554
 20
0.9238800063845432
 30
0.000000008924615
  0
VERTEX
  5
267
  8
OUTLINE__1_5_2_
  6
CONTINUOUS
 62
     2
 10
7.241848869586554
 20
1.173880006384543
 30
0.000000008924615
  0
VERTEX
  5
268
  8
OUTLINE__1_5_2_
  6
CONTINUOUS
 62
     2
 10
7.093098892236319
 20
1.173880006384543
 30
0.000000008924615
  0
SEQEND
  5
2C7
  8
OUTLINE__1_5_2_
  6
CONTINUOUS
 62
     2
  0
POLYLINE
  5
155
  8
OUTLINE__1_5_2_
  6
CONTINUOUS
 62
     2
 66
     1
 10
0.0
 20
0.0
 30
0.000000008924615
210
0.0
220
0.0
230
-1.0
  0
VERTEX
  5
269
  8
OUTLINE__1_5_2_
  6
CONTINUOUS
 62
     2
 10
6.575130148196783
 20
1.059817503404311
 30
0.000000008924615
  0
VERTEX
  5
26A
  8
OUTLINE__1_5_2_
  6
CONTINUOUS
 62
     2
 10
6.547239495778647
 20
1.083255003404311
 30
0.000000008924615
  0
VERTEX
  5
26B
  8
OUTLINE__1_5_2_
  6
CONTINUOUS
 62
     2
 10
6.512708274984923
 20
1.083255003404311
 30
0.000000008924615
  0
VERTEX
  5
26C
  8
OUTLINE__1_5_2_
  6
CONTINUOUS
 62
     2
 10
6.484817607665625
 20
1.059817503404311
 30
0.000000008924615
  0
VERTEX
  5
26D
  8
OUTLINE__1_5_2_
  6
CONTINUOUS
 62
     2
 10
6.474192632699576
 20
1.020755003404311
 30
0.000000008924615
  0
VERTEX
  5
26E
  8
OUTLINE__1_5_2_
  6
CONTINUOUS
 62
     2
 10
6.474192632699576
 20
0.9238800063845432
 30
0.000000008924615
  0
SEQEND
  5
2C8
  8
OUTLINE__1_5_2_
  6
CONTINUOUS
 62
     2
  0
ARC
  5
15C
  8
OUTLINE__1_5_2_
  6
CONTINUOUS
 62
     2
 10
-2.574803149606299
 20
24.21259842519673
 30
-0.0000000000074635
 40
0.3937007874015748
 50
0.0
 51
90.0
  0
ARC
  5
15D
  8
OUTLINE__1_5_2_
  6
CONTINUOUS
 62
     2
 10
-12.41732283464567
 20
13.44488188976366
 30
-0.0000000000038421
 40
0.3937007874015748
 50
179.9999999999992
 51
270.0
  0
ARC
  5
15E
  8
OUTLINE__1_5_2_
  6
CONTINUOUS
 62
     2
 10
-12.41732283464567
 20
24.21259842519673
 30
-0.0000000000074641
 40
0.3937007874015748
 50
90.0
 51
180.0
  0
ARC
  5
15F
  8
OUTLINE__1_5_2_
  6
CONTINUOUS
 62
     2
 10
-5.273622047244094
 20
7.545275590551062
 30
-0.0000000000022669
 40
0.2952755905511811
 50
24.41440231491404
 51
155.5855976851161
  0
ARC
  5
160
  8
OUTLINE__1_5_2_
  6
CONTINUOUS
 62
     2
 10
-2.574803149606299
 20
13.44488188976366
 30
-0.0000000000038415
 40
0.3937007874015748
 50
270.0
 51
0.0
  0
ARC
  5
161
  8
OUTLINE__1_5_2_
  6
CONTINUOUS
 62
     2
 10
-5.273622047244094
 20
7.545275590551062
 30
-0.0000000000022669
 40
0.2952755905511811
 50
202.7472480084932
 51
337.2527519915664
  0
CIRCLE
  5
162
  8
OUTLINE__1_5_2_
  6
CONTINUOUS
 62
     2
 10
-13.40157480314961
 20
23.32677165354319
 30
-0.0000000000069918
 40
0.1082677165354331
  0
CIRCLE
  5
163
  8
OUTLINE__1_5_2_
  6
CONTINUOUS
 62
     2
 10
-2.834645669291338
 20
7.545275590551062
 30
-0.0000000000022667
 40
0.452755905511811
  0
CIRCLE
  5
164
  8
OUTLINE__1_5_2_
  6
CONTINUOUS
 62
     2
 10
-13.40157480314961
 20
24.76377952755893
 30
-0.0000000000073855
 40
0.0688976377952756
  0
CIRCLE
  5
165
  8
OUTLINE__1_5_2_
  6
CONTINUOUS
 62
     2
 10
-1.590551181102362
 20
0.629921259842401
 30
-0.0000000000002981
 40
0.0688976377952756
  0
CIRCLE
  5
166
  8
OUTLINE__1_5_2_
  6
CONTINUOUS
 62
     2
 10
-2.834645669291338
 20
8.868110236220353
 30
-0.0000000000026604
 40
0.1574803149606299
  0
CIRCLE
  5
167
  8
OUTLINE__1_5_2_
  6
CONTINUOUS
 62
     2
 10
-13.40157480314961
 20
11.59448818897626
 30
-0.0000000000034485
 40
0.0688976377952756
  0
CIRCLE
  5
168
  8
OUTLINE__1_5_2_
  6
CONTINUOUS
 62
     2
 10
-13.40157480314961
 20
16.10236220472429
 30
-0.0000000000046296
 40
0.1082677165354331
  0
CIRCLE
  5
169
  8
OUTLINE__1_5_2_
  6
CONTINUOUS
 62
     2
 10
-1.590551181102362
 20
24.76377952755893
 30
-0.0000000000073848
 40
0.0688976377952756
  0
CIRCLE
  5
16A
  8
OUTLINE__1_5_2_
  6
CONTINUOUS
 62
     2
 10
-13.40157480314961
 20
15.11811023622035
 30
-0.0000000000046296
 40
0.1082677165354331
  0
CIRCLE
  5
16B
  8
OUTLINE__1_5_2_
  6
CONTINUOUS
 62
     2
 10
-13.40157480314961
 20
22.34251968503925
 30
-0.0000000000065981
 40
0.1082677165354331
  0
CIRCLE
  5
16C
  8
OUTLINE__1_5_2_
  6
CONTINUOUS
 62
     2
 10
-1.590551181102362
 20
11.59448818897626
 30
-0.0000000000034477
 40
0.0688976377952756
  0
CIRCLE
  5
16D
  8
OUTLINE__1_5_2_
  6
CONTINUOUS
 62
     2
 10
-13.40157480314961
 20
0.629921259842401
 30
-0.0000000000002988
 40
0.0688976377952756
  0
LINE
  5
16E
  8
OUTLINE__1_4_2_
  6
CONTINUOUS
 62
     2
 10
-0.0000000000000007
 20
0.0
 30
0.0
 11
-0.0000000000000007
 21
25.59055118110236
 31
0.0
210
0.0
220
1.0
230
0.0
  0
LINE
  5
16F
  8
OUTLINE__1_4_2_
  6
CONTINUOUS
 62
     2
 10
-0.0000000000000007
 20
25.59055118110236
 30
0.0
 11
12.20472440944882
 21
25.59055118110236
 31
0.0000000000000007
210
0.0
220
1.0
230
0.0
  0
LINE
  5
170
  8
OUTLINE__1_4_2_
  6
CONTINUOUS
 62
     2
 10
6.68146664795913
 20
2.029373551916888
 30
-0.0000000089172303
 11
6.68146664795913
 21
2.279373551916888
 31
-0.0000000089172303
210
0.0
220
1.0
230
0.0
  0
LINE
  5
171
  8
OUTLINE__1_4_2_
  6
CONTINUOUS
 62
     2
 10
12.20472440944882
 20
25.59055118110236
 30
0.0000000000000007
 11
12.20472440944882
 21
-0.0000000000000021
 31
0.0000000000000007
210
0.0
220
1.0
230
0.0
  0
LINE
  5
172
  8
OUTLINE__1_4_2_
  6
CONTINUOUS
 62
     2
 10
12.20472440944882
 20
0.0
 30
0.0000000000000007
 11
0.0
 21
0.0
 31
0.0
210
0.0
220
1.0
230
0.0
  0
LINE
  5
173
  8
OUTLINE__1_4_2_
  6
CONTINUOUS
 62
     2
 10
5.427716740942376
 20
2.185623551916888
 30
-0.0000000089172303
 11
5.507404217100518
 21
2.185623551916888
 31
-0.0000000089172303
210
0.0
220
1.0
230
0.0
  0
LINE
  5
174
  8
OUTLINE__1_4_2_
  6
CONTINUOUS
 62
     2
 10
5.680060455179589
 20
2.029373551916888
 30
-0.0000000089172303
 11
5.680060455179589
 21
2.279373551916888
 31
-0.0000000089172303
210
0.0
220
1.0
230
0.0
  0
LINE
  5
175
  8
OUTLINE__1_4_2_
  6
CONTINUOUS
 62
     2
 10
5.637560495710748
 20
2.191873545956424
 30
-0.0000000089172303
 11
5.746466705179589
 21
2.191873545956424
 31
-0.0000000089172303
210
0.0
220
1.0
230
0.0
  0
LINE
  5
176
  8
OUTLINE__1_4_2_
  6
CONTINUOUS
 62
     2
 10
6.275060521042722
 20
2.191873545956424
 30
-0.0000000089172303
 11
6.275060521042722
 21
2.029373551916888
 31
-0.0000000089172303
210
0.0
220
1.0
230
0.0
  0
LINE
  5
177
  8
OUTLINE__1_4_2_
  6
CONTINUOUS
 62
     2
 10
6.741232284880059
 20
2.154373551916888
 30
-0.0000000089172303
 11
6.8302168041233
 21
2.029373551916888
 31
-0.0000000089172303
210
0.0
220
1.0
230
0.0
  0
LINE
  5
178
  8
OUTLINE__1_4_2_
  6
CONTINUOUS
 62
     2
 10
6.777091810083764
 20
2.154373551916888
 30
-0.0000000089172303
 11
6.68146664795913
 21
2.154373551916888
 31
-0.0000000089172303
210
0.0
220
1.0
230
0.0
  0
LINE
  5
179
  8
OUTLINE__1_4_2_
  6
CONTINUOUS
 62
     2
 10
6.68146664795913
 20
2.279373551916888
 30
-0.0000000089172303
 11
6.777091810083764
 21
2.279373551916888
 31
-0.0000000089172303
210
0.0
220
1.0
230
0.0
  0
LINE
  5
17A
  8
OUTLINE__1_4_2_
  6
CONTINUOUS
 62
     2
 10
6.968341717100518
 20
2.279373551916888
 30
-0.0000000089172303
 11
6.968341717100518
 21
2.241873557877353
 31
-0.0000000089172303
210
0.0
220
1.0
230
0.0
  0
LINE
  5
17B
  8
OUTLINE__1_4_2_
  6
CONTINUOUS
 62
     2
 10
6.968341717100518
 20
2.191873545956424
 30
-0.0000000089172303
 11
6.968341717100518
 21
2.029373551916888
 31
-0.0000000089172303
210
0.0
220
1.0
230
0.0
  0
LINE
  5
17C
  8
OUTLINE__1_4_2_
  6
CONTINUOUS
 62
     2
 10
7.337560483789819
 20
2.279373551916888
 30
-0.0000000089172303
 11
7.337560483789819
 21
2.029373551916888
 31
-0.0000000089172303
210
0.0
220
1.0
230
0.0
  0
LINE
  5
17D
  8
OUTLINE__1_4_2_
  6
CONTINUOUS
 62
     2
 10
7.592560479021447
 20
2.029373551916888
 30
-0.0000000089172303
 11
7.592560479021447
 21
2.279373551916888
 31
-0.0000000089172303
210
0.0
220
1.0
230
0.0
  0
LINE
  5
17E
  8
OUTLINE__1_4_2_
  6
CONTINUOUS
 62
     2
 10
7.55006057915725
 20
2.191873545956424
 30
-0.0000000089172303
 11
7.658966729021447
 21
2.191873545956424
 31
-0.0000000089172303
210
0.0
220
1.0
230
0.0
  0
POLYLINE
  5
17F
  8
OUTLINE__1_4_2_
  6
CONTINUOUS
 62
     2
 66
     1
 10
0.0
 20
0.0
 30
-0.0000000089172303
  0
VERTEX
  5
26F
  8
OUTLINE__1_4_2_
  6
CONTINUOUS
 62
     2
 10
7.337560483789819
 20
2.110623548936656
 30
-0.0000000089172303
  0
VERTEX
  5
270
  8
OUTLINE__1_4_2_
  6
CONTINUOUS
 62
     2
 10
7.34818560776748
 20
2.149686048936656
 30
-0.0000000089172303
  0
VERTEX
  5
271
  8
OUTLINE__1_4_2_
  6
CONTINUOUS
 62
     2
 10
7.37607605156936
 20
2.173123548936656
 30
-0.0000000089172303
  0
VERTEX
  5
272
  8
OUTLINE__1_4_2_
  6
CONTINUOUS
 62
     2
 10
7.410607406473535
 20
2.173123548936656
 30
-0.0000000089172303
  0
VERTEX
  5
273
  8
OUTLINE__1_4_2_
  6
CONTINUOUS
 62
     2
 10
7.438497850275414
 20
2.149686048936656
 30
-0.0000000089172303
  0
VERTEX
  5
274
  8
OUTLINE__1_4_2_
  6
CONTINUOUS
 62
     2
 10
7.449122974253076
 20
2.110623548936656
 30
-0.0000000089172303
  0
VERTEX
  5
275
  8
OUTLINE__1_4_2_
  6
CONTINUOUS
 62
     2
 10
7.449122974253076
 20
2.029373551916888
 30
-0.0000000089172303
  0
SEQEND
  5
2C9
  8
OUTLINE__1_4_2_
  6
CONTINUOUS
 62
     2
  0
POLYLINE
  5
187
  8
OUTLINE__1_4_2_
  6
CONTINUOUS
 62
     2
 66
     1
 10
0.0
 20
0.0
 30
-0.0000000089172303
  0
VERTEX
  5
276
  8
OUTLINE__1_4_2_
  6
CONTINUOUS
 62
     2
 10
7.236622938490289
 20
2.191873545956424
 30
-0.0000000089172303
  0
VERTEX
  5
277
  8
OUTLINE__1_4_2_
  6
CONTINUOUS
 62
     2
 10
7.236622938490289
 20
1.994998539995959
 30
-0.0000000089172303
  0
VERTEX
  5
278
  8
OUTLINE__1_4_2_
  6
CONTINUOUS
 62
     2
 10
7.228654333925622
 20
1.960623557877353
 30
-0.0000000089172303
  0
VERTEX
  5
279
  8
OUTLINE__1_4_2_
  6
CONTINUOUS
 62
     2
 10
7.207404205179589
 20
1.937186057877353
 30
-0.0000000089172303
  0
VERTEX
  5
27A
  8
OUTLINE__1_4_2_
  6
CONTINUOUS
 62
     2
 10
7.178185531473535
 20
1.929373557877353
 30
-0.0000000089172303
  0
VERTEX
  5
27B
  8
OUTLINE__1_4_2_
  6
CONTINUOUS
 62
     2
 10
7.150294789648431
 20
1.940311039995959
 30
-0.0000000089172303
  0
VERTEX
  5
27C
  8
OUTLINE__1_4_2_
  6
CONTINUOUS
 62
     2
 10
7.130372950411218
 20
1.966873551916888
 30
-0.0000000089172303
  0
SEQEND
  5
2CA
  8
OUTLINE__1_4_2_
  6
CONTINUOUS
 62
     2
  0
POLYLINE
  5
18F
  8
OUTLINE__1_4_2_
  6
CONTINUOUS
 62
     2
 66
     1
 10
0.0
 20
0.0
 30
-0.0000000089172303
  0
VERTEX
  5
27D
  8
OUTLINE__1_4_2_
  6
CONTINUOUS
 62
     2
 10
7.236622938490289
 20
2.126248548936656
 30
-0.0000000089172303
  0
VERTEX
  5
27E
  8
OUTLINE__1_4_2_
  6
CONTINUOUS
 62
     2
 10
7.225997874117272
 20
2.165311048936656
 30
-0.0000000089172303
  0
VERTEX
  5
27F
  8
OUTLINE__1_4_2_
  6
CONTINUOUS
 62
     2
 10
7.198107370710748
 20
2.188748548936656
 30
-0.0000000089172303
  0
VERTEX
  5
280
  8
OUTLINE__1_4_2_
  6
CONTINUOUS
 62
     2
 10
7.163576075411218
 20
2.188748548936656
 30
-0.0000000089172303
  0
VERTEX
  5
281
  8
OUTLINE__1_4_2_
  6
CONTINUOUS
 62
     2
 10
7.135685572004693
 20
2.165311048936656
 30
-0.0000000089172303
  0
VERTEX
  5
282
  8
OUTLINE__1_4_2_
  6
CONTINUOUS
 62
     2
 10
7.125060507631677
 20
2.126248548936656
 30
-0.0000000089172303
  0
VERTEX
  5
283
  8
OUTLINE__1_4_2_
  6
CONTINUOUS
 62
     2
 10
7.125060507631677
 20
2.094998548936656
 30
-0.0000000089172303
  0
VERTEX
  5
284
  8
OUTLINE__1_4_2_
  6
CONTINUOUS
 62
     2
 10
7.135685572004693
 20
2.055936048936656
 30
-0.0000000089172303
  0
VERTEX
  5
285
  8
OUTLINE__1_4_2_
  6
CONTINUOUS
 62
     2
 10
7.163576075411218
 20
2.032498548936656
 30
-0.0000000089172303
  0
VERTEX
  5
286
  8
OUTLINE__1_4_2_
  6
CONTINUOUS
 62
     2
 10
7.198107370710748
 20
2.032498548936656
 30
-0.0000000089172303
  0
VERTEX
  5
287
  8
OUTLINE__1_4_2_
  6
CONTINUOUS
 62
     2
 10
7.225997874117272
 20
2.055936048936656
 30
-0.0000000089172303
  0
VERTEX
  5
288
  8
OUTLINE__1_4_2_
  6
CONTINUOUS
 62
     2
 10
7.236622938490289
 20
2.094998548936656
 30
-0.0000000089172303
  0
SEQEND
  5
2CB
  8
OUTLINE__1_4_2_
  6
CONTINUOUS
 62
     2
  0
POLYLINE
  5
19C
  8
OUTLINE__1_4_2_
  6
CONTINUOUS
 62
     2
 66
     1
 10
0.0
 20
0.0
 30
0.0000000089172303
210
0.0
220
0.0
230
-1.0
  0
VERTEX
  5
289
  8
OUTLINE__1_4_2_
  6
CONTINUOUS
 62
     2
 10
-6.777091810083764
 20
2.154373551916888
 30
0.0000000089172303
  0
VERTEX
  5
28A
  8
OUTLINE__1_4_2_
  6
CONTINUOUS
 62
     2
 10
-6.795685479021447
 20
2.159061054897121
 30
0.0000000089172303
  0
VERTEX
  5
28B
  8
OUTLINE__1_4_2_
  6
CONTINUOUS
 62
     2
 10
-6.81162292656936
 20
2.168436045956424
 30
0.0000000089172303
  0
VERTEX
  5
28C
  8
OUTLINE__1_4_2_
  6
CONTINUOUS
 62
     2
 10
-6.823576191044229
 20
2.185623551916888
 30
0.0000000089172303
  0
VERTEX
  5
28D
  8
OUTLINE__1_4_2_
  6
CONTINUOUS
 62
     2
 10
-6.828888604021447
 20
2.205936054897121
 30
0.0000000089172303
  0
VERTEX
  5
28E
  8
OUTLINE__1_4_2_
  6
CONTINUOUS
 62
     2
 10
-6.828888604021447
 20
2.227811048936656
 30
0.0000000089172303
  0
VERTEX
  5
28F
  8
OUTLINE__1_4_2_
  6
CONTINUOUS
 62
     2
 10
-6.823576191044229
 20
2.248123551916888
 30
0.0000000089172303
  0
VERTEX
  5
290
  8
OUTLINE__1_4_2_
  6
CONTINUOUS
 62
     2
 10
-6.81162292656936
 20
2.265311057877353
 30
0.0000000089172303
  0
VERTEX
  5
291
  8
OUTLINE__1_4_2_
  6
CONTINUOUS
 62
     2
 10
-6.795685479021447
 20
2.274686048936656
 30
0.0000000089172303
  0
VERTEX
  5
292
  8
OUTLINE__1_4_2_
  6
CONTINUOUS
 62
     2
 10
-6.777091810083764
 20
2.279373551916888
 30
0.0000000089172303
  0
SEQEND
  5
2CC
  8
OUTLINE__1_4_2_
  6
CONTINUOUS
 62
     2
  0
POLYLINE
  5
1A7
  8
OUTLINE__1_4_2_
  6
CONTINUOUS
 62
     2
 66
     1
 10
0.0
 20
0.0
 30
-0.0000000089172303
  0
VERTEX
  5
293
  8
OUTLINE__1_4_2_
  6
CONTINUOUS
 62
     2
 10
6.275060521042722
 20
2.126248548936656
 30
-0.0000000089172303
  0
VERTEX
  5
294
  8
OUTLINE__1_4_2_
  6
CONTINUOUS
 62
     2
 10
6.283029248541968
 20
2.160623545956424
 30
-0.0000000089172303
  0
VERTEX
  5
295
  8
OUTLINE__1_4_2_
  6
CONTINUOUS
 62
     2
 10
6.304279228276389
 20
2.184061045956424
 30
-0.0000000089172303
  0
VERTEX
  5
296
  8
OUTLINE__1_4_2_
  6
CONTINUOUS
 62
     2
 10
6.333497938536855
 20
2.191873545956424
 30
-0.0000000089172303
  0
VERTEX
  5
297
  8
OUTLINE__1_4_2_
  6
CONTINUOUS
 62
     2
 10
6.361388643807548
 20
2.180936048936656
 30
-0.0000000089172303
  0
VERTEX
  5
298
  8
OUTLINE__1_4_2_
  6
CONTINUOUS
 62
     2
 10
6.381310520297664
 20
2.154373551916888
 30
-0.0000000089172303
  0
SEQEND
  5
2CD
  8
OUTLINE__1_4_2_
  6
CONTINUOUS
 62
     2
  0
POLYLINE
  5
1AE
  8
OUTLINE__1_4_2_
  6
CONTINUOUS
 62
     2
 66
     1
 10
0.0
 20
0.0
 30
-0.0000000089172303
 70
     1
  0
VERTEX
  5
299
  8
OUTLINE__1_4_2_
  6
CONTINUOUS
 62
     2
 10
6.13560740051307
 20
2.188748548936656
 30
-0.0000000089172303
  0
VERTEX
  5
29A
  8
OUTLINE__1_4_2_
  6
CONTINUOUS
 62
     2
 10
6.101076060510056
 20
2.188748548936656
 30
-0.0000000089172303
  0
VERTEX
  5
29B
  8
OUTLINE__1_4_2_
  6
CONTINUOUS
 62
     2
 10
6.073185452795403
 20
2.165311048936656
 30
-0.0000000089172303
  0
VERTEX
  5
29C
  8
OUTLINE__1_4_2_
  6
CONTINUOUS
 62
     2
 10
6.062560507631677
 20
2.126248548936656
 30
-0.0000000089172303
  0
VERTEX
  5
29D
  8
OUTLINE__1_4_2_
  6
CONTINUOUS
 62
     2
 10
6.062560507631677
 20
2.094998548936656
 30
-0.0000000089172303
  0
VERTEX
  5
29E
  8
OUTLINE__1_4_2_
  6
CONTINUOUS
 62
     2
 10
6.073185452795403
 20
2.055936048936656
 30
-0.0000000089172303
  0
VERTEX
  5
29F
  8
OUTLINE__1_4_2_
  6
CONTINUOUS
 62
     2
 10
6.101076060510056
 20
2.032498548936656
 30
-0.0000000089172303
  0
VERTEX
  5
2A0
  8
OUTLINE__1_4_2_
  6
CONTINUOUS
 62
     2
 10
6.13560740051307
 20
2.032498548936656
 30
-0.0000000089172303
  0
VERTEX
  5
2A1
  8
OUTLINE__1_4_2_
  6
CONTINUOUS
 62
     2
 10
6.163497993326562
 20
2.055936048936656
 30
-0.0000000089172303
  0
VERTEX
  5
2A2
  8
OUTLINE__1_4_2_
  6
CONTINUOUS
 62
     2
 10
6.174122938490289
 20
2.094998548936656
 30
-0.0000000089172303
  0
VERTEX
  5
2A3
  8
OUTLINE__1_4_2_
  6
CONTINUOUS
 62
     2
 10
6.174122938490289
 20
2.126248548936656
 30
-0.0000000089172303
  0
VERTEX
  5
2A4
  8
OUTLINE__1_4_2_
  6
CONTINUOUS
 62
     2
 10
6.163497993326562
 20
2.165311048936656
 30
-0.0000000089172303
  0
SEQEND
  5
2CE
  8
OUTLINE__1_4_2_
  6
CONTINUOUS
 62
     2
  0
POLYLINE
  5
1BB
  8
OUTLINE__1_4_2_
  6
CONTINUOUS
 62
     2
 66
     1
 10
0.0
 20
0.0
 30
-0.0000000089172303
  0
VERTEX
  5
2A5
  8
OUTLINE__1_4_2_
  6
CONTINUOUS
 62
     2
 10
5.512716779089349
 20
2.279373551916888
 30
-0.0000000089172303
  0
VERTEX
  5
2A6
  8
OUTLINE__1_4_2_
  6
CONTINUOUS
 62
     2
 10
5.494122990942376
 20
2.279373551916888
 30
-0.0000000089172303
  0
VERTEX
  5
2A7
  8
OUTLINE__1_4_2_
  6
CONTINUOUS
 62
     2
 10
5.475529202795403
 20
2.269998545956424
 30
-0.0000000089172303
  0
VERTEX
  5
2A8
  8
OUTLINE__1_4_2_
  6
CONTINUOUS
 62
     2
 10
5.467560479021447
 20
2.248123551916888
 30
-0.0000000089172303
  0
VERTEX
  5
2A9
  8
OUTLINE__1_4_2_
  6
CONTINUOUS
 62
     2
 10
5.467560479021447
 20
2.029373551916888
 30
-0.0000000089172303
  0
SEQEND
  5
2CF
  8
OUTLINE__1_4_2_
  6
CONTINUOUS
 62
     2
  0
POLYLINE
  5
1C1
  8
OUTLINE__1_4_2_
  6
CONTINUOUS
 62
     2
 66
     1
 10
0.0
 20
0.0
 30
-0.0000000089172303
  0
VERTEX
  5
2AA
  8
OUTLINE__1_4_2_
  6
CONTINUOUS
 62
     2
 10
5.212560483789819
 20
2.126248548936656
 30
-0.0000000089172303
  0
VERTEX
  5
2AB
  8
OUTLINE__1_4_2_
  6
CONTINUOUS
 62
     2
 10
5.324122974253076
 20
2.126248548936656
 30
-0.0000000089172303
  0
VERTEX
  5
2AC
  8
OUTLINE__1_4_2_
  6
CONTINUOUS
 62
     2
 10
5.313497969484704
 20
2.165311048936656
 30
-0.0000000089172303
  0
VERTEX
  5
2AD
  8
OUTLINE__1_4_2_
  6
CONTINUOUS
 62
     2
 10
5.285607287264245
 20
2.188748548936656
 30
-0.0000000089172303
  0
VERTEX
  5
2AE
  8
OUTLINE__1_4_2_
  6
CONTINUOUS
 62
     2
 10
5.251076170778649
 20
2.188748548936656
 30
-0.0000000089172303
  0
VERTEX
  5
2AF
  8
OUTLINE__1_4_2_
  6
CONTINUOUS
 62
     2
 10
5.22318548855819
 20
2.165311048936656
 30
-0.0000000089172303
  0
VERTEX
  5
2B0
  8
OUTLINE__1_4_2_
  6
CONTINUOUS
 62
     2
 10
5.212560483789819
 20
2.126248548936656
 30
-0.0000000089172303
  0
VERTEX
  5
2B1
  8
OUTLINE__1_4_2_
  6
CONTINUOUS
 62
     2
 10
5.212560483789819
 20
2.094998548936656
 30
-0.0000000089172303
  0
VERTEX
  5
2B2
  8
OUTLINE__1_4_2_
  6
CONTINUOUS
 62
     2
 10
5.221857377863305
 20
2.059061045956424
 30
-0.0000000089172303
  0
VERTEX
  5
2B3
  8
OUTLINE__1_4_2_
  6
CONTINUOUS
 62
     2
 10
5.244435498094933
 20
2.035623545956424
 30
-0.0000000089172303
  0
VERTEX
  5
2B4
  8
OUTLINE__1_4_2_
  6
CONTINUOUS
 62
     2
 10
5.276310512400048
 20
2.029373551916888
 30
-0.0000000089172303
  0
VERTEX
  5
2B5
  8
OUTLINE__1_4_2_
  6
CONTINUOUS
 62
     2
 10
5.304201075411218
 20
2.044998551916888
 30
-0.0000000089172303
  0
VERTEX
  5
2B6
  8
OUTLINE__1_4_2_
  6
CONTINUOUS
 62
     2
 10
5.321466752863305
 20
2.076248551916888
 30
-0.0000000089172303
  0
SEQEND
  5
2D0
  8
OUTLINE__1_4_2_
  6
CONTINUOUS
 62
     2
  0
POLYLINE
  5
1CF
  8
OUTLINE__1_4_2_
  6
CONTINUOUS
 62
     2
 66
     1
 10
0.0
 20
0.0
 30
0.0000000089172303
210
0.0
220
0.0
230
-1.0
  0
VERTEX
  5
2B7
  8
OUTLINE__1_4_2_
  6
CONTINUOUS
 62
     2
 10
-4.981466719484704
 20
2.279373551916888
 30
0.0000000089172303
  0
VERTEX
  5
2B8
  8
OUTLINE__1_4_2_
  6
CONTINUOUS
 62
     2
 10
-4.981466719484704
 20
2.029373551916888
 30
0.0000000089172303
  0
VERTEX
  5
2B9
  8
OUTLINE__1_4_2_
  6
CONTINUOUS
 62
     2
 10
-5.130216786241906
 20
2.029373551916888
 30
0.0000000089172303
  0
SEQEND
  5
2D1
  8
OUTLINE__1_4_2_
  6
CONTINUOUS
 62
     2
  0
CIRCLE
  5
1D3
  8
OUTLINE__1_4_2_
  6
CONTINUOUS
 62
     2
 10
0.3937007874015741
 20
0.7874015748031497
 30
0.0
 40
0.0688976377952756
  0
CIRCLE
  5
1D4
  8
OUTLINE__1_4_2_
  6
CONTINUOUS
 62
     2
 10
0.3937007874015741
 20
13.05118110236221
 30
0.0
 40
0.0688976377952756
  0
CIRCLE
  5
1D5
  8
OUTLINE__1_4_2_
  6
CONTINUOUS
 62
     2
 10
0.3937007874015741
 20
24.60629921259842
 30
0.0
 40
0.0688976377952756
  0
CIRCLE
  5
1D6
  8
OUTLINE__1_4_2_
  6
CONTINUOUS
 62
     2
 10
11.81102362204724
 20
24.60629921259842
 30
0.0000000000000007
 40
0.0688976377952756
  0
CIRCLE
  5
1D7
  8
OUTLINE__1_4_2_
  6
CONTINUOUS
 62
     2
 10
11.81102362204724
 20
13.05118110236221
 30
0.0000000000000007
 40
0.0688976377952756
  0
CIRCLE
  5
1D8
  8
OUTLINE__1_4_2_
  6
CONTINUOUS
 62
     2
 10
11.81102362204724
 20
0.7874015748031497
 30
0.0000000000000007
 40
0.0688976377952756
  0
VIEWPORT
  5
1D9
 67
     1
  8
0
 62
     3
 10
5.25
 20
4.0
 30
0.0
 40
11.638
 41
8.993
 68
     1
 69
     1
1001
ACAD
1000
MVIEW
1002
{
1070
    16
1010
0.0
1020
0.0
1030
0.0
1010
0.0
1020
0.0
1030
1.0
1040
0.0
1040
8.993
1040
5.25
1040
4.0
1040
50.0
1040
0.0
1040
0.0
1070
     0
1070
   100
1070
     0
1070
     3
1070
     0
1070
     0
1070
     0
1070
     0
1040
0.0
1040
0.0
1040
0.0
1040
0.5
1040
0.5
1040
0.5
1040
0.5
1070
     0
1002
{
1002
}
1002
}
  0
ENDSEC
  0
EOF
